<?xml version="1.0"?>
<svg width="3000" height="3000" xmlns="http://www.w3.org/2000/svg" xmlns:svg="http://www.w3.org/2000/svg" version="1.1">
 <g class="layer" display="inline">
  <title>Layer 1</title>
  <path d="m-4.17,0c995.5,0 1991,0 3016.67,0c0,990 0,1980 0,3000c-995.5,0 -1991,0 -3016.67,0c0,-990 0,-1980 0,-3000zm2276.58,312c-0.8,0.11 -1.61,0.22 -2.44,0.34c-21.48,2.99 -42.82,6.61 -63.92,11.66c-0.73,0.18 -1.47,0.35 -2.23,0.53c-86.33,20.68 -169.75,50.53 -252.68,81.74c-18.45,6.95 -36.91,13.83 -55.39,20.7c-3.62,1.35 -7.25,2.7 -10.86,4.05c-182.94,68.19 -182.94,68.19 -354.04,72.75c-15.55,-7.35 -27.43,-18.83 -33.34,-35.11c-0.79,-2.22 -1.55,-4.45 -2.26,-6.7c-1.48,-4.55 -3.07,-8.26 -6.16,-11.96c-1.33,0 -2.65,0 -4.02,0c-0.35,1.13 -0.35,1.13 -0.7,2.28c-0.7,2.27 -1.41,4.54 -2.11,6.8c-0.83,2.66 -1.6,5.32 -2.34,7.99c-2.4,8.45 -5.23,15.06 -10.93,21.93c-0.61,0.82 -1.22,1.64 -1.85,2.49c-13.48,15.59 -36.92,20.43 -56.47,22.51c-4.97,0.28 -9.91,0.33 -14.89,0.31c-0.67,0 -1.35,0 -2.04,-0.01c-24.78,-0.13 -48.54,-4.67 -72.56,-10.3c-0.67,-0.16 -1.34,-0.31 -2.03,-0.47c-40.6,-9.56 -80.11,-23.52 -118.98,-38.5c-2.8,-1.08 -5.6,-2.15 -8.41,-3.23c-11.36,-4.36 -22.72,-8.74 -34.07,-13.13c-11.36,-4.4 -22.74,-8.79 -34.11,-13.17c-4.1,-1.58 -8.22,-3.17 -12.32,-4.75c-1.53,-0.59 -1.53,-0.59 -3.09,-1.19c-6.14,-2.37 -12.3,-4.74 -18.44,-7.12c-42.71,-16.52 -85.45,-32.97 -128.55,-48.44c-1.17,-0.42 -1.17,-0.42 -2.35,-0.84c-87.26,-31.29 -181.43,-63.21 -368.83,-47.02c-34.81,16.49 -57.88,45.62 -71.11,81.16c-10.74,30.34 -15.78,63.6 -15.23,95.7c-0.62,-0.02 -1.24,-0.03 -1.88,-0.05c-17.03,-0.37 -33.53,0.76 -50.41,3.05c-1.06,0.13 -2.11,0.27 -3.21,0.41c-14.96,1.92 -28.22,5.58 -42.04,11.59c-0.74,0.31 -1.5,0.63 -2.26,0.95c-15.86,6.71 -31,15.76 -43.99,27.05c-0.79,0.66 -1.59,1.32 -2.4,2c-33.28,28.4 -46.92,71 -50.55,113.3c-1.16,15.21 -1.66,30.45 -1.35,45.7c0.02,0.89 0.04,1.79 0.05,2.7c0.27,11.23 1.04,22.01 3.47,32.99c1.87,8.57 3.53,17.18 5,25.83c16.29,95.37 47.12,190.28 88.85,298.25c10.03,25.82 19.4,51.87 28.52,78.02c2.15,6.16 4.3,12.31 6.47,18.46c1.58,4.5 3.16,9 4.74,13.5c2.8,8 5.6,15.99 8.46,23.97c10.55,29.47 20.13,59.21 29.43,89.09c0.93,2.98 1.87,5.95 2.81,8.93c5.89,18.64 10.86,36.81 13.27,56.26c0.48,3.61 0.99,7.21 1.51,10.81c0.12,0.82 0.23,1.64 0.35,2.49c0.84,5.55 2.2,10.67 4.3,15.9c2.8,8.95 2.08,18.82 2.07,28.11c0,0.76 0,1.51 0,2.29c-0.07,29.32 -2.8,58.33 -24.13,80.65c-9.52,9.13 -20.38,13.54 -33.18,16.25c-4.98,1.07 -8.35,2.27 -12.26,5.5c0.14,2.41 0.14,2.41 1.01,5c7.28,5.75 18.07,8.21 26.79,11.02c14.45,4.76 24.03,11.44 31.14,25.08c12.25,26.78 17.91,65.7 7.43,93.84c-0.33,0.88 -0.67,1.76 -1.02,2.66c-1.19,4.05 -1.52,7.9 -1.85,12.09c-0.94,10.04 -3.08,19.56 -5.62,29.31c-0.22,0.86 -0.43,1.71 -0.66,2.59c-4.43,17.31 -9.65,34.32 -15.28,51.28c-0.69,2.11 -1.4,4.23 -2.09,6.34c-2.67,8.09 -5.38,16.17 -8.12,24.24c-1.49,4.4 -2.98,8.8 -4.44,13.2c-9.47,28.33 -19.6,56.32 -30.39,84.17c-5.37,13.9 -10.61,27.85 -15.86,41.81c-1.8,4.77 -3.6,9.54 -5.39,14.31c-0.51,1.36 -1.03,2.72 -1.54,4.07c-3.62,9.62 -7.25,19.22 -10.9,28.83c-28.52,75.13 -55.9,151.06 -75.51,229.04c-0.29,1.17 -0.58,2.34 -0.89,3.54c-2.8,11.17 -5.5,22.36 -7.82,33.64c-0.17,0.78 -0.33,1.55 -0.5,2.35c-1.05,5.26 -1.48,10.42 -1.65,15.78c-0.23,6.85 -1.23,13.1 -3.06,19.72c-2.59,9.56 -2.63,19.39 -2.64,29.24c0,1.13 0,2.26 -0.01,3.43c0,2.39 -0.01,4.78 -0.01,7.17c0,3.58 -0.02,7.16 -0.03,10.75c-0.05,17.69 0.69,35.26 3.99,52.69c0.25,1.35 0.25,1.35 0.51,2.74c7.15,35.95 28.18,69.04 58.63,89.89c32.44,21.56 71.45,29.39 109.67,33.49c0.8,0.09 1.62,0.18 2.45,0.27c2.33,0.25 4.68,0.49 7.01,0.72c0.68,0.07 1.38,0.14 2.09,0.22c4.68,0.45 9.26,0.54 13.96,0.48c-0.02,0.8 -0.04,1.61 -0.06,2.43c-0.42,18.65 0.45,36.2 4.08,54.57c0.36,1.94 0.36,1.94 0.73,3.91c3.19,16.92 6.98,32.86 15.35,48.09c0.6,1.12 0.6,1.12 1.23,2.27c19.33,35.43 50.22,62.22 89.21,74.11c16.99,4.89 34.65,7.72 52.34,7.86c1.57,0.01 1.57,0.01 3.18,0.03c40.28,0.29 78.07,-3.94 117.47,-12.41c5.07,-1.08 10.13,-2.05 15.25,-2.83c23.01,-3.54 45.01,-10.28 67.23,-17.03c1.05,-0.32 2.08,-0.63 3.16,-0.96c56.05,-17 111.2,-36.43 166.16,-56.64c9.08,-3.35 18.17,-6.66 27.27,-9.96c1.1,-0.4 2.19,-0.8 3.32,-1.2c1.11,-0.41 2.21,-0.81 3.35,-1.22c17.88,-6.48 35.74,-12.98 53.55,-19.64c37.94,-14.2 75.96,-28.15 114.25,-41.38c1.35,-0.47 1.35,-0.47 2.73,-0.94c49.34,-17.06 100.15,-33.36 152.13,-40.06c0.88,-0.12 1.76,-0.23 2.67,-0.35c33.2,-4.19 68.7,-4.87 96.37,16.29c13.56,11.65 20.22,24.31 24.03,41.48c0.19,0.83 0.37,1.65 0.56,2.5c0.15,0.74 0.31,1.48 0.47,2.24c0.48,2.06 0.48,2.06 2.58,3.84c2.93,0.58 2.93,0.58 6.03,0c4.6,-4.24 5.24,-9.21 6.42,-15.06c4.29,-19.32 14.74,-33.39 31.54,-44.19c36.07,-20.54 102.4,-4.64 139.62,5.2c62.47,17.03 122.88,40.7 183.23,63.84c5.57,2.13 11.14,4.26 16.71,6.4c1.66,0.63 1.66,0.63 3.35,1.28c14.98,5.74 30.01,11.41 45.06,16.98c14.14,5.25 28.22,10.66 42.28,16.11c19.48,7.55 39.02,14.89 58.67,21.98c3.57,1.29 7.14,2.6 10.71,3.91c48.01,17.51 96.93,32.07 146.57,44.17c7.72,1.88 15.41,3.81 23.05,6c60.89,17.42 139.47,17.79 195.97,-12.82c9.86,-5.55 18.63,-12.16 26.95,-19.8c0.52,-0.47 1.04,-0.94 1.57,-1.43c18.2,-16.74 30.18,-38.21 37.65,-61.57c0.22,-0.69 0.45,-1.39 0.68,-2.11c8.19,-25.81 14.4,-58.78 14.4,-85.89c1.05,-0.1 2.09,-0.2 3.16,-0.3c5.66,-0.54 11.3,-1.11 16.95,-1.7c0.99,-0.1 0.99,-0.1 1.99,-0.21c42.76,-4.43 81.64,-11.89 115.66,-39.79c0.96,-0.78 1.9,-1.56 2.89,-2.36c25.41,-21.87 39.64,-54.17 46.2,-86.33c0.2,-0.96 0.39,-1.92 0.59,-2.91c3.25,-17 3.99,-33.76 3.93,-51.02c0,-1.08 0,-2.15 0,-3.26c-0.05,-18.22 -0.88,-36.05 -3.33,-54.12c-0.17,-1.28 -0.34,-2.57 -0.52,-3.89c-6.44,-46.95 -18.45,-92.68 -32.91,-137.76c-0.73,-2.29 -1.47,-4.59 -2.19,-6.88c-16.03,-50.65 -34.82,-100.43 -53.61,-150.12c-15.43,-40.83 -30.72,-81.72 -45.58,-122.76c-0.95,-2.61 -1.89,-5.21 -2.84,-7.82c-53.74,-148.05 -53.74,-148.05 -63.46,-213.77c-0.12,-0.8 -0.24,-1.6 -0.37,-2.43c-0.72,-4.84 -1.26,-9.69 -1.64,-14.57c-0.07,-0.84 -0.13,-1.67 -0.2,-2.54c-2.24,-29.81 -0.42,-61.15 18.11,-85.96c8.78,-10.05 20.18,-15.08 32.11,-20.46c4.85,-2.22 9.59,-4.64 14.34,-7.04c0.05,-1.95 0.05,-1.95 -1.01,-4c-2.39,-1.1 -4.54,-1.89 -7.04,-2.62c-0.68,-0.22 -1.38,-0.44 -2.09,-0.66c-3.55,-1.09 -7.07,-2 -10.73,-2.66c-12.11,-2.48 -22.56,-11.41 -29.22,-21.43c-11.49,-19.34 -14.7,-39.52 -14.64,-61.63c0,-0.83 0,-1.66 0,-2.52c0.12,-35.89 8.99,-70.32 19.48,-104.48c0.29,-0.96 0.29,-0.96 0.59,-1.95c7.62,-24.74 16.47,-49.03 25.43,-73.32c0.43,-1.16 0.86,-2.32 1.31,-3.52c0.42,-1.14 0.84,-2.29 1.28,-3.48c3.25,-8.8 6.39,-17.64 9.47,-26.5c16.06,-46.04 34.09,-91.42 52.11,-136.73c0.3,-0.76 0.6,-1.52 0.92,-2.31c0.61,-1.53 1.22,-3.06 1.83,-4.59c1.53,-3.87 3.07,-7.73 4.61,-11.6c0.32,-0.81 0.64,-1.62 0.98,-2.45c34.15,-85.95 66.55,-174.37 83.93,-275.74c0.12,-0.74 0.24,-1.49 0.36,-2.26c3.19,-19.92 4.62,-39.76 4.54,-59.92c0,-0.98 0,-1.96 0,-2.97c-0.04,-14.76 -0.6,-29.11 -3.33,-43.66c-0.22,-1.25 -0.22,-1.25 -0.44,-2.53c-5.03,-28.61 -17.35,-52.82 -36.76,-74.47c-0.64,-0.73 -1.3,-1.46 -1.96,-2.21c-25.76,-27.29 -70.5,-45.28 -107.78,-46.93c-4.93,-0.15 -9.86,-0.27 -14.8,-0.38c-10.27,-0.28 -20.26,-1.41 -30.32,-3.48c-0.05,-0.95 -0.1,-1.89 -0.16,-2.87c-0.59,-10.41 -1.53,-20.76 -2.66,-31.13c-0.09,-0.8 -0.18,-1.61 -0.27,-2.43c-4.24,-38.52 -11.8,-72.43 -37.61,-102.76c-1.53,-1.81 -1.53,-1.81 -3.54,-4.81c-0.66,0 -1.33,0 -2.01,0c-0.22,-0.56 -0.45,-1.11 -0.68,-1.68c-13.06,-22.8 -48.99,-35.1 -72.85,-41.63c-14.47,-3.77 -29.43,-5.79 -44.39,-5.93c-0.85,-0.01 -1.72,-0.02 -2.61,-0.03c-23.78,-0.21 -46.97,1.01 -70.52,4.27z" fill="#C8C8C8" id="svg_2"/>
  <path d="m1486.5,1122.43c2.5,0.57 2.5,0.57 5.13,2.88c2.51,4.92 2.57,9.28 2.65,14.69c0.02,0.93 0.04,1.86 0.06,2.82c0.06,3.13 0.11,6.26 0.16,9.38c0.04,2.23 0.08,4.46 0.12,6.69c0.11,6.04 0.22,12.09 0.32,18.13c0.06,3.79 0.13,7.58 0.19,11.36c0.81,46.6 1.41,93.2 1.74,139.8c0.07,9.81 0.16,19.61 0.28,29.42c0.07,5.89 0.13,11.79 0.18,17.68c0.02,3.23 0.05,6.47 0.1,9.7c0.06,3.39 0.08,6.79 0.09,10.18c0.04,1.46 0.04,1.46 0.07,2.95c0,0.88 0,1.75 -0.01,2.66c0.01,0.75 0.02,1.5 0.03,2.27c-0.61,1.96 -0.61,1.96 -3.1,3.32c-2.81,1.42 -2.81,1.42 -3.19,4.5c-0.02,1.17 -0.05,2.33 -0.07,3.54c-0.02,0.64 -0.04,1.28 -0.06,1.95c-0.06,2.12 -0.09,4.25 -0.12,6.38c-0.03,1.47 -0.07,2.95 -0.11,4.42c-0.1,3.88 -0.17,7.77 -0.23,11.65c-0.07,3.96 -0.17,7.92 -0.26,11.88c-0.19,7.77 -0.34,15.54 -0.47,23.32c1.43,0.02 2.86,0.04 4.28,0.05c0.8,0.01 1.59,0.02 2.41,0.03c3.3,-0.12 6.17,-1.11 9.31,-2.08c3.21,-0.66 6.45,-1.18 9.69,-1.69c0.84,-0.14 1.68,-0.29 2.55,-0.43c0.81,-0.13 1.62,-0.26 2.46,-0.4c0.73,-0.11 1.46,-0.23 2.21,-0.35c2.25,-0.14 3.95,0.21 6.09,0.87c0,0.66 0,1.32 0,2c0.78,0.18 1.57,0.37 2.38,0.56c4.21,1.67 7.39,3.99 11.04,6.64c3.01,2.1 6.13,3.81 9.35,5.55c3.9,2.18 7.54,4.73 11.23,7.25c4.35,2.95 8.79,5.7 13.31,8.37c5.02,2.98 9.95,6.03 14.76,9.34c2.26,1.51 4.59,2.89 6.93,4.29c2.77,1.75 5.52,3.51 8.28,5.28c3.32,2.1 6.69,4.11 10.08,6.11c4.89,2.9 9.65,5.92 14.36,9.11c3.2,2.1 6.5,4.04 9.8,5.99c3.2,1.95 6.29,4.04 9.4,6.14c1.83,1.2 3.67,2.3 5.58,3.37c2.59,1.44 5.05,3.01 7.5,4.68c4.75,3.22 9.66,6.15 14.6,9.07c7.81,4.63 7.81,4.63 11.4,7.25c0,0.66 0,1.32 0,2c0.87,0.26 1.73,0.53 2.63,0.81c3.29,1.16 6.28,2.57 9.37,4.19c0,0.66 0,1.32 0,2c0.72,0.26 1.44,0.53 2.18,0.81c2.82,1.19 5.28,2.58 7.88,4.19c2.93,1.8 5.84,3.51 8.94,5c0,0.66 0,1.32 0,2c0.65,0.22 1.3,0.45 1.97,0.68c4.06,1.77 7.71,4.05 11.47,6.38c1.19,0.73 1.19,0.73 2.41,1.48c7.11,4.4 14.14,8.91 21.15,13.46c6.88,4.42 13.82,8.74 20.79,13.02c3.85,2.37 7.67,4.8 11.48,7.24c5.75,3.66 11.55,7.24 17.38,10.78c6.88,4.18 13.7,8.4 20.35,12.96c4.31,2.92 8.7,5.65 13.19,8.31c8.5,5.07 16.84,10.35 25.06,15.87c4.18,2.8 8.36,5.38 12.75,7.82c3.34,1.98 6.67,3.99 10,6c0.93,0.51 1.85,1.03 2.8,1.56c0.73,0.47 1.45,0.95 2.2,1.44c0,0.66 0,1.32 0,2c0.73,0.27 1.46,0.54 2.21,0.82c2.67,1.13 5.01,2.41 7.48,3.93c3.42,2.09 6.85,4.15 10.31,6.18c3.49,2.09 6.82,4.32 10.13,6.69c3.59,2.57 7.16,4.61 11.15,6.49c2.51,1.29 4.53,3.11 6.72,4.89c1.41,0.87 2.82,1.72 4.25,2.56c4.8,2.82 9.46,5.83 14.13,8.87c5.9,3.86 11.86,7.51 17.98,11.02c3.28,1.92 6.43,4.02 9.58,6.16c4.29,2.89 8.72,5.57 13.13,8.27c5.56,3.4 11.08,6.83 16.48,10.48c3.17,2.12 6.37,4.19 9.58,6.26c0.57,0.37 1.14,0.75 1.73,1.13c3.32,2.14 6.69,4.13 10.13,6.07c5.44,3.19 10.7,6.71 16,10.13c4.58,2.94 9.07,5.77 14.01,8.05c0,0.66 0,1.32 0,2c0.73,0.27 1.46,0.55 2.22,0.83c2.6,1.09 4.88,2.32 7.28,3.79c0.87,0.53 1.74,1.06 2.63,1.61c0.95,0.58 1.89,1.16 2.87,1.77c1.56,0.95 1.56,0.95 3.15,1.92c18.17,11.13 18.17,11.13 26.04,16.76c3.58,2.55 7.16,4.6 11.12,6.49c2.19,1.07 3.96,2.1 5.69,3.83c0.75,2.68 0.75,2.68 1,5c-0.99,0.33 -1.98,0.66 -3,1c0.33,0.99 0.66,1.98 1,3c-0.94,3.18 -0.94,3.18 -2,6c-1.65,0 -3.3,0 -5,0c0,-0.66 0,-1.32 0,-2c-0.79,-0.28 -0.79,-0.28 -1.59,-0.56c-5.65,-2.12 -10.92,-4.7 -16.22,-7.57c-7.46,-4.03 -15.04,-7.73 -22.71,-11.34c-4.28,-2.01 -8.53,-4.05 -12.76,-6.19c-3.4,-1.71 -6.79,-3.29 -10.34,-4.66c-0.84,-0.32 -1.68,-0.65 -2.54,-0.98c-0.61,-0.24 -1.22,-0.47 -1.84,-0.7c0,-0.66 0,-1.32 0,-2c-0.73,-0.12 -1.45,-0.24 -2.2,-0.36c-2.85,-0.66 -5.03,-1.61 -7.61,-2.96c-0.87,-0.44 -1.74,-0.89 -2.63,-1.35c-0.85,-0.44 -1.69,-0.88 -2.56,-1.33c-1.42,-0.71 -2.83,-1.42 -4.25,-2.13c-1.25,-0.62 -2.5,-1.25 -3.75,-1.87c-0.96,-0.48 -1.92,-0.96 -2.9,-1.45c-1.91,-0.96 -3.81,-1.91 -5.71,-2.88c-5.92,-2.99 -11.88,-5.86 -17.89,-8.67c-8.84,-4.14 -17.6,-8.37 -26.12,-13.13c-4.31,-2.38 -8.65,-4.26 -13.24,-6.01c-2.56,-1.03 -4.8,-2.41 -7.14,-3.86c-1.52,-0.64 -1.52,-0.64 -3.07,-1.29c-4.54,-1.92 -8.84,-4.26 -13.18,-6.59c-6.03,-3.21 -12.06,-6.29 -18.32,-9.03c-3.48,-1.56 -6.86,-3.32 -10.24,-5.08c-2.06,-0.95 -3.97,-1.55 -6.19,-2.01c0,-0.66 0,-1.32 0,-2c-1,-0.25 -2.01,-0.5 -3.04,-0.76c-4.11,-1.18 -7.62,-3.03 -11.33,-5.12c-4.79,-2.62 -9.55,-5.07 -14.56,-7.22c-2.19,-0.96 -4.31,-2.01 -6.44,-3.09c-5,-2.53 -10.06,-4.92 -15.13,-7.31c-6.54,-3.09 -13.05,-6.23 -19.5,-9.5c-11.57,-5.87 -23.27,-11.46 -35,-17c0,-0.66 0,-1.32 0,-2c-0.66,-0.09 -1.33,-0.17 -2.01,-0.26c-3.93,-0.98 -7.23,-2.74 -10.8,-4.62c-5.3,-2.77 -10.55,-5.12 -16.19,-7.12c0,-0.66 0,-1.32 0,-2c-0.58,-0.14 -1.15,-0.27 -1.75,-0.41c-8.67,-2.27 -16.42,-6.73 -24.27,-10.95c-4.93,-2.62 -9.82,-4.92 -15.06,-6.85c-2.89,-1.19 -5.32,-3.06 -7.92,-4.79c-2.49,-1.07 -4.99,-2.04 -7.54,-2.98c-2.67,-1.11 -4.99,-2.51 -7.46,-4.02c-7.41,-3.86 -14.92,-7.47 -22.54,-10.89c-3.54,-1.6 -7,-3.35 -10.46,-5.11c-1.21,-0.61 -2.42,-1.21 -3.62,-1.82c-3.63,-1.81 -7.25,-3.62 -10.88,-5.43c-0.59,-0.3 -1.19,-0.6 -1.8,-0.9c-3.24,-1.62 -6.47,-3.24 -9.7,-4.87c-7.3,-3.68 -14.62,-7.23 -22.05,-10.62c-4.37,-2.02 -8.66,-4.19 -12.95,-6.36c-2.04,-1.03 -4.08,-2.05 -6.12,-3.07c-1.96,-0.98 -3.92,-1.95 -5.88,-2.93c-0.62,-0.32 -1.25,-0.63 -1.89,-0.95c-3.24,-1.62 -6.49,-3.24 -9.72,-4.88c-8.05,-4.06 -16.16,-7.98 -24.32,-11.81c-5.75,-2.72 -11.45,-5.54 -17.13,-8.41c-5.62,-2.82 -11.3,-5.51 -17.01,-8.16c-4.68,-2.19 -9.31,-4.46 -13.93,-6.79c-1.05,-0.53 -2.11,-1.06 -3.2,-1.6c-8.8,-4.4 -8.8,-4.4 -12.04,-6.09c-2.55,-1.46 -2.55,-1.46 -4.76,-1.31c0,1.24 -0.01,2.47 -0.01,3.75c-0.28,79.65 -0.55,159.3 -1.49,369.56c-0.01,0.92 -0.01,1.84 -0.02,2.79c-0.27,48.67 -0.61,97.34 -1.04,146.01c-0.5,56.71 -0.74,113.42 -1,170.14c-0.01,1.82 -0.01,1.82 -0.02,3.68c-0.14,31.35 -0.28,62.71 -0.42,94.07c-4.29,0 -8.58,0 -13,0c-0.75,-37.69 -1.13,-75.38 -1.41,-113.08c-0.09,-12.05 -0.18,-24.11 -0.27,-36.16c-0.01,-0.72 -0.01,-1.44 -0.02,-2.19c-0.34,-43.84 -0.77,-87.69 -1.2,-131.54c-0.08,-7.78 -0.15,-15.56 -0.23,-23.34c-0.09,-9.63 -0.18,-19.26 -0.28,-28.9c-0.05,-4.96 -0.1,-9.92 -0.14,-14.88c-0.2,-20.21 -0.46,-40.42 -0.88,-60.63c-0.59,-28.44 -0.86,-56.88 -1.06,-85.32c-0.04,-4.94 -0.07,-9.88 -0.11,-14.81c-0.01,-1.08 -0.01,-1.08 -0.02,-2.18c-0.01,-1.47 -0.02,-2.93 -0.03,-4.4c-0.1,-13.58 -0.2,-27.16 -0.3,-40.74c-0.08,-11.42 -0.16,-22.85 -0.25,-34.27c-0.53,-69.19 -0.98,-138.37 -0.8,-207.56c-1.38,0.04 -1.38,0.04 -2.79,0.09c-3.77,-0.11 -5.97,-1.24 -9.21,-3.09c-0.54,0.49 -1.09,0.98 -1.64,1.49c-1.08,0.96 -1.08,0.96 -2.17,1.94c-0.71,0.64 -1.42,1.28 -2.15,1.94c-2.04,1.63 -2.04,1.63 -5.04,2.63c-0.33,0.99 -0.66,1.98 -1,3c-1.62,1.71 -3.3,3.37 -5,5c-0.81,0.82 -1.63,1.65 -2.46,2.5c-9.49,9.58 -19.02,17.26 -31.54,22.5c-2.57,1.48 -5.1,3.02 -7.63,4.57c-7.34,4.43 -7.34,4.43 -11.37,4.43c-0.33,0.66 -0.66,1.32 -1,2c-1.89,0.98 -3.79,1.95 -5.71,2.87c-2.2,1.08 -4.34,2.24 -6.48,3.44c-9.99,5.6 -20.12,10.93 -30.27,16.22c-3.22,1.69 -6.38,3.37 -9.48,5.26c-2.06,1.21 -2.06,1.21 -4.06,1.21c0,0.66 0,1.32 0,2c-1.03,0.33 -2.06,0.66 -3.13,1c-4.68,1.75 -8.85,4.21 -13.16,6.73c-5.26,3.07 -10.64,5.81 -16.12,8.48c-3.2,1.56 -6.31,3.19 -9.38,5.02c-3.21,1.77 -3.21,1.77 -6.21,1.77c0,0.66 0,1.32 0,2c-0.97,0.47 -0.97,0.47 -1.96,0.96c-13.69,6.78 -27.16,13.94 -40.47,21.42c-5.49,3.07 -11.08,5.88 -16.73,8.64c-5.41,2.68 -10.54,5.74 -15.69,8.9c-3.84,2.34 -7.64,4.29 -11.79,5.99c-3.17,1.46 -6.16,3.21 -9.17,4.96c-5.18,3.01 -10.41,5.79 -15.79,8.43c-10.21,5.09 -20.37,10.32 -30.07,16.33c-3.76,2.21 -7.68,4.08 -11.59,6c-2.13,1.06 -4.19,2.16 -6.24,3.37c-2.99,1.76 -6.07,3.28 -9.19,4.81c-5.29,2.61 -10.35,5.51 -15.42,8.52c-3.49,2.01 -7.08,3.78 -10.7,5.54c-2.91,1.5 -5.5,3.27 -8.19,5.13c-2.29,1.25 -4.56,2.22 -7,3.18c-3.36,1.42 -6.43,3.2 -9.56,5.07c-18.13,10.75 -18.13,10.75 -22.44,10.75c0,0.66 0,1.32 0,2c-0.67,0.29 -1.33,0.58 -2.02,0.88c-11.52,4.99 -11.52,4.99 -22.05,11.73c-1.93,1.39 -1.93,1.39 -3.76,1.84c-3.29,0.83 -6.02,2.64 -8.92,4.36c-1.25,0.73 -2.5,1.45 -3.75,2.17c-0.6,0.35 -1.21,0.7 -1.82,1.06c-8.67,4.96 -8.67,4.96 -12.68,4.96c0,0.66 0,1.32 0,2c-1.07,0.52 -1.07,0.52 -2.17,1.06c-10.51,5.21 -20.81,10.78 -31.02,16.56c-5.03,2.85 -10.09,5.59 -15.29,8.11c-4.32,2.17 -8.52,4.56 -12.73,6.91c-2.79,1.36 -2.79,1.36 -5.79,1.36c0,0.66 0,1.32 0,2c-1.11,0.54 -1.11,0.54 -2.24,1.1c-8.51,4.21 -17.01,8.45 -25.01,13.58c-2.39,1.53 -4.49,2.63 -7.13,3.75c-3,1.3 -5.49,2.66 -8.25,4.38c-3.81,2.35 -7.66,4.29 -11.75,6.12c-5.44,2.45 -10.5,5.26 -15.62,8.32c-12.92,7.51 -12.92,7.51 -19,8.75c0,0.66 0,1.32 0,2c-0.5,0.2 -1,0.41 -1.51,0.63c-8.01,3.43 -15.78,7.47 -23.2,12.04c-2.45,1.42 -4.5,1.93 -7.29,2.33c0,0.66 0,1.32 0,2c-1.98,0.33 -3.96,0.66 -6,1c0,0.66 0,1.32 0,2c-6.63,4 -6.63,4 -10,4c-0.33,0.66 -0.66,1.32 -1,2c-1.66,0.68 -3.33,1.35 -5,2c-2.64,1.52 -5.21,3.14 -7.79,4.75c-2.21,1.25 -2.21,1.25 -4.21,1.25c-0.33,0.66 -0.66,1.32 -1,2c-3.06,0.62 -3.06,0.62 -6,1c0,0.66 0,1.32 0,2c-1.45,0.58 -1.45,0.58 -2.94,1.18c-3.6,1.55 -6.97,3.39 -10.38,5.32c-3.16,1.77 -6.36,3.48 -9.56,5.18c-0.62,0.34 -1.25,0.67 -1.89,1.02c-3.71,1.97 -7.44,3.93 -11.18,5.86c-0.83,0.44 -1.67,0.87 -2.54,1.32c-1.63,0.85 -3.26,1.69 -4.9,2.53c-3.64,1.89 -7.06,3.83 -10.37,6.27c-2.76,1.98 -4.88,3.17 -8.05,4.25c-4.75,1.77 -8.82,4.14 -13.06,6.89c-2.13,1.18 -2.13,1.18 -5.13,1.18c0,0.66 0,1.32 0,2c-0.91,0.35 -1.82,0.7 -2.75,1.06c-3.56,1.51 -6.81,3.4 -10.13,5.37c-4.27,2.55 -8.52,4.73 -13.09,6.67c-4.1,1.81 -7.9,4.12 -11.59,6.65c-2.98,1.52 -5.14,1.48 -8.44,1.25c-0.33,-1.32 -0.66,-2.64 -1,-4c-0.66,0 -1.32,0 -2,0c-0.45,-0.79 -0.91,-1.57 -1.38,-2.38c-1.7,-2.75 -2.67,-3.5 -5.62,-4.62c0.06,-2.25 0.06,-2.25 1,-5c3,-1.94 3,-1.94 4.91,-2.91c2.31,-1.21 4.38,-2.61 6.53,-4.09c4.91,-3.32 9.91,-6.12 15.56,-8c0,-0.66 0,-1.32 0,-2c2.29,-1.34 4.58,-2.67 6.87,-4c0.98,-0.58 0.98,-0.58 1.98,-1.16c4.92,-2.84 4.92,-2.84 7.15,-2.84c0,-0.66 0,-1.32 0,-2c1.55,-0.87 1.55,-0.87 3.12,-1.75c2.29,-1.31 4.45,-2.64 6.63,-4.13c2.79,-1.82 5.56,-3.38 8.5,-4.94c4.65,-2.49 8.87,-5.31 13.14,-8.39c3.82,-2.63 7.84,-4.87 11.86,-7.17c2.83,-1.67 5.43,-3.5 8.07,-5.46c1.85,-1.28 3.76,-2.34 5.74,-3.41c4.57,-2.48 8.92,-5.26 13.27,-8.09c5.4,-3.51 10.86,-6.92 16.34,-10.3c3.23,-2 6.3,-4.08 9.33,-6.36c1.38,-0.8 2.78,-1.57 4.19,-2.32c4.18,-2.26 8.07,-4.82 11.96,-7.55c1.85,-1.13 1.85,-1.13 3.85,-1.13c0,-0.66 0,-1.32 0,-2c0.66,-0.23 1.31,-0.45 1.99,-0.68c4.03,-1.77 7.54,-4.14 11.2,-6.57c4.7,-3.09 9.39,-6.16 14.25,-9c3.29,-1.94 6.4,-4.02 9.5,-6.25c3.32,-2.37 6.64,-4.42 10.25,-6.32c6.1,-3.22 11.73,-7.04 17.43,-10.91c7.82,-5.27 7.82,-5.27 11.38,-5.27c0,-0.66 0,-1.32 0,-2c0.8,-0.44 1.6,-0.88 2.43,-1.33c8.16,-4.55 15.94,-9.48 23.61,-14.81c0.74,-0.5 1.47,-1 2.22,-1.52c0.65,-0.45 1.3,-0.9 1.97,-1.37c1.77,-0.97 1.77,-0.97 4.77,-0.97c0,-0.66 0,-1.32 0,-2c7.43,-4.43 7.43,-4.43 11,-5c0,-0.66 0,-1.32 0,-2c0.99,0 1.98,0 3,0c0,-0.66 0,-1.32 0,-2c0.82,-0.43 1.64,-0.85 2.49,-1.29c6.32,-3.32 12.2,-6.77 17.98,-10.96c2.77,-1.92 5.61,-3.59 8.53,-5.25c3.84,-2.19 7.48,-4.48 11.06,-7.07c4.27,-3.06 8.7,-5.51 13.34,-7.96c3.15,-1.78 5.89,-3.89 8.72,-6.12c1.82,-1.31 3.54,-2.23 5.57,-3.17c3.82,-1.79 7.19,-4.12 10.62,-6.56c4.78,-3.39 9.65,-6.32 14.83,-9.05c5.82,-3.2 11.31,-6.94 16.86,-10.57c8.9,-5.82 17.82,-11.57 26.87,-17.13c0.77,-0.47 1.54,-0.95 2.33,-1.43c0.72,-0.44 1.43,-0.88 2.17,-1.33c0.94,-0.57 0.94,-0.57 1.91,-1.16c1.72,-0.95 1.72,-0.95 4.72,-1.95c0,-0.66 0,-1.32 0,-2c0.56,-0.26 1.12,-0.52 1.7,-0.78c7.12,-3.4 13.65,-7.57 20.24,-11.88c3.87,-2.52 7.78,-5 11.68,-7.47c0.82,-0.51 1.63,-1.03 2.47,-1.56c5.36,-3.38 10.78,-6.59 16.28,-9.73c3.54,-2.13 6.87,-4.53 10.24,-6.94c9.67,-6.64 9.67,-6.64 13.39,-6.64c0,-0.66 0,-1.32 0,-2c0.89,-0.5 1.77,-0.99 2.69,-1.5c7.74,-4.44 15.37,-9.05 22.62,-14.25c3.44,-2.46 6.83,-4.38 10.64,-6.17c2.45,-1.29 4.61,-2.84 6.86,-4.46c3.34,-2.4 6.66,-4.48 10.31,-6.37c5.85,-3.07 11.15,-6.8 16.49,-10.65c0.65,-0.46 1.31,-0.93 1.98,-1.41c0.59,-0.42 1.17,-0.84 1.78,-1.28c1.63,-0.91 1.63,-0.91 4.63,-0.91c0,-0.66 0,-1.32 0,-2c1.46,-0.84 2.91,-1.67 4.37,-2.5c0.82,-0.47 1.63,-0.93 2.47,-1.41c2.16,-1.09 2.16,-1.09 4.16,-1.09c0,-0.66 0,-1.32 0,-2c1.04,-0.57 2.08,-1.14 3.15,-1.73c7.14,-3.94 14.04,-7.93 20.64,-12.73c2.12,-1.48 4.24,-2.71 6.52,-3.92c3.89,-2.08 7.47,-4.51 11.06,-7.06c4.83,-3.42 9.76,-6.37 14.99,-9.13c5.5,-2.99 10.69,-6.5 15.93,-9.93c1.72,-1.13 3.45,-2.26 5.17,-3.39c1.74,-1.13 3.47,-2.27 5.2,-3.41c4.67,-3.06 9.39,-5.92 14.33,-8.54c2.09,-1.15 2.09,-1.15 4.14,-2.81c1.87,-1.35 1.87,-1.35 3.87,-1.35c0,-0.66 0,-1.32 0,-2c0.63,-0.33 1.26,-0.66 1.91,-1c6.22,-3.3 12.14,-6.9 18.03,-10.75c3.21,-2.09 6.43,-4.07 9.81,-5.88c3.22,-1.73 6.16,-3.67 9.12,-5.81c4.38,-3.14 8.91,-5.71 13.67,-8.22c2.64,-1.39 2.64,-1.39 5.65,-3.53c2.81,-1.81 2.81,-1.81 6.47,-3.11c4.6,-1.68 8.51,-4.1 12.59,-6.77c1.38,-0.88 2.76,-1.77 4.14,-2.66c0.6,-0.39 1.2,-0.78 1.81,-1.18c4.47,-2.72 8.6,-3.72 13.74,-4.53c6.38,-1.06 12.65,-2.35 18.93,-3.89c3.29,-0.71 6.54,-1.1 9.88,-1.49c5.53,-0.76 9.02,-2.47 13.35,-5.94c1.9,-1.24 1.9,-1.24 5.9,-1.24c0,-0.66 0,-1.32 0,-2c0.99,0 1.98,0 3,0c-0.12,-6.26 -0.24,-12.52 -0.37,-18.78c-0.05,-2.12 -0.09,-4.24 -0.13,-6.36c-0.28,-15.1 -0.28,-15.1 -0.91,-30.18c-0.06,-1.23 -0.13,-2.46 -0.2,-3.73c-0.19,-3.14 -0.19,-3.14 -2.39,-5.95c-7.15,-60.86 -2.19,-125.77 -2.19,-187.02c0,-7.35 -0.01,-14.69 -0.02,-22.04c-0.01,-7.23 -0.02,-14.45 -0.02,-21.67c0,-4.25 0,-8.51 -0.01,-12.76c-0.01,-3.94 -0.01,-7.88 0,-11.82c0,-1.44 -0.01,-2.87 -0.01,-4.31c-0.07,-18.11 -0.07,-18.11 6.27,-25.05c3.35,-2.26 6.54,-2.15 10.48,-1.9z" fill="#DCC847" id="svg_3"/>
  <path d="m1468,1472c0.66,0.66 1.32,1.32 2,2c-0.46,0.61 -0.92,1.21 -1.39,1.84c-6.61,9.02 -11.31,18.1 -10.43,29.52c1.92,12.4 8.1,21.03 17.82,28.64c-0.99,0 -1.98,0 -3,0c-3.12,1.56 -5.21,3.21 -7.69,5.69c-0.76,0.76 -1.52,1.52 -2.31,2.31c-0.66,0 -1.32,0 -2,0c-0.33,0.99 -0.66,1.98 -1,3c-1.62,1.71 -3.3,3.37 -5,5c-0.81,0.83 -1.63,1.65 -2.46,2.5c-9.49,9.59 -19.02,17.26 -31.54,22.5c-2.57,1.48 -5.1,3.02 -7.63,4.57c-7.34,4.43 -7.34,4.43 -11.37,4.43c-0.33,0.66 -0.66,1.32 -1,2c-1.89,0.98 -3.79,1.95 -5.71,2.88c-2.2,1.08 -4.34,2.23 -6.48,3.43c-9.99,5.6 -20.12,10.93 -30.27,16.23c-3.22,1.68 -6.38,3.36 -9.48,5.26c-2.06,1.2 -2.06,1.2 -4.06,1.2c0,0.66 0,1.32 0,2c-1.03,0.33 -2.06,0.66 -3.13,1c-4.68,1.75 -8.85,4.21 -13.16,6.74c-5.26,3.06 -10.64,5.8 -16.12,8.47c-3.2,1.57 -6.31,3.2 -9.38,5.02c-3.21,1.77 -3.21,1.77 -6.21,1.77c0,0.66 0,1.32 0,2c-0.65,0.32 -1.29,0.63 -1.96,0.96c-13.69,6.78 -27.16,13.94 -40.47,21.43c-5.49,3.06 -11.08,5.88 -16.73,8.63c-5.41,2.68 -10.54,5.74 -15.69,8.9c-3.84,2.35 -7.64,4.29 -11.79,6c-3.17,1.45 -6.16,3.2 -9.17,4.96c-5.18,3 -10.41,5.78 -15.79,8.42c-10.21,5.09 -20.37,10.33 -30.07,16.33c-3.76,2.21 -7.68,4.08 -11.59,6c-2.13,1.07 -4.19,2.16 -6.24,3.37c-2.99,1.76 -6.07,3.28 -9.19,4.81c-5.29,2.62 -10.35,5.51 -15.42,8.53c-3.49,2.01 -7.08,3.77 -10.7,5.54c-2.91,1.49 -5.5,3.26 -8.19,5.12c-2.29,1.26 -4.56,2.22 -7,3.19c-3.36,1.42 -6.43,3.19 -9.56,5.06c-18.13,10.75 -18.13,10.75 -22.44,10.75c0,0.66 0,1.32 0,2c-0.67,0.29 -1.33,0.58 -2.02,0.88c-11.52,4.99 -11.52,4.99 -22.05,11.74c-1.93,1.38 -1.93,1.38 -3.76,1.83c-3.29,0.83 -6.02,2.65 -8.92,4.36c-1.25,0.73 -2.5,1.45 -3.75,2.18c-0.6,0.35 -1.21,0.69 -1.82,1.05c-8.67,4.96 -8.67,4.96 -12.68,4.96c0,0.66 0,1.32 0,2c-1.07,0.53 -1.07,0.53 -2.17,1.07c-10.51,5.21 -20.81,10.77 -31.02,16.56c-5.03,2.85 -10.09,5.58 -15.29,8.11c-4.32,2.16 -8.52,4.55 -12.73,6.9c-2.79,1.36 -2.79,1.36 -5.79,1.36c0,0.66 0,1.32 0,2c-1.11,0.55 -1.11,0.55 -2.24,1.1c-8.51,4.22 -17.01,8.45 -25.01,13.59c-2.39,1.52 -4.49,2.62 -7.13,3.75c-3,1.29 -5.49,2.66 -8.25,4.37c-3.81,2.35 -7.66,4.3 -11.75,6.13c-5.44,2.44 -10.5,5.26 -15.62,8.32c-12.92,7.51 -12.92,7.51 -19,8.74c0,0.66 0,1.32 0,2c-0.5,0.21 -1,0.42 -1.51,0.63c-8.01,3.44 -15.78,7.47 -23.2,12.04c-2.45,1.43 -4.5,1.93 -7.29,2.33c0,0.66 0,1.32 0,2c-1.98,0.33 -3.96,0.66 -6,1c0,0.66 0,1.32 0,2c-6.63,4 -6.63,4 -10,4c-0.33,0.66 -0.66,1.32 -1,2c-1.66,0.69 -3.33,1.35 -5,2c-2.64,1.53 -5.21,3.14 -7.79,4.76c-2.21,1.24 -2.21,1.24 -4.21,1.24c-0.33,0.66 -0.66,1.32 -1,2c-3.06,0.63 -3.06,0.63 -6,1c0,0.66 0,1.32 0,2c-0.97,0.39 -1.94,0.78 -2.94,1.19c-3.6,1.54 -6.97,3.38 -10.38,5.31c-3.16,1.77 -6.36,3.48 -9.56,5.19c-0.62,0.33 -1.25,0.67 -1.89,1.01c-3.71,1.98 -7.44,3.93 -11.18,5.86c-0.83,0.44 -1.67,0.87 -2.54,1.32c-1.63,0.85 -3.26,1.69 -4.9,2.53c-3.64,1.89 -7.06,3.83 -10.37,6.27c-2.76,1.98 -4.88,3.17 -8.05,4.26c-4.75,1.76 -8.82,4.14 -13.06,6.89c-2.13,1.17 -2.13,1.17 -5.13,1.17c0,0.66 0,1.32 0,2c-0.91,0.35 -1.82,0.7 -2.75,1.06c-3.56,1.51 -6.81,3.4 -10.13,5.38c-4.27,2.54 -8.52,4.72 -13.09,6.66c-4.1,1.82 -7.9,4.13 -11.59,6.65c-2.98,1.53 -5.14,1.48 -8.44,1.25c-0.33,-1.32 -0.66,-2.64 -1,-4c-0.66,0 -1.32,0 -2,0c-0.45,-0.78 -0.91,-1.57 -1.38,-2.37c-1.7,-2.75 -2.67,-3.51 -5.62,-4.63c0.06,-2.25 0.06,-2.25 1,-5c3,-1.94 3,-1.94 4.91,-2.9c2.31,-1.21 4.38,-2.62 6.53,-4.1c4.91,-3.32 9.91,-6.12 15.56,-8c0,-0.66 0,-1.32 0,-2c2.29,-1.34 4.58,-2.67 6.87,-4c0.66,-0.38 1.31,-0.76 1.98,-1.16c4.92,-2.84 4.92,-2.84 7.15,-2.84c0,-0.66 0,-1.32 0,-2c1.55,-0.87 1.55,-0.87 3.12,-1.75c2.29,-1.3 4.45,-2.64 6.63,-4.12c2.79,-1.83 5.56,-3.39 8.5,-4.94c4.65,-2.5 8.87,-5.32 13.14,-8.4c3.82,-2.62 7.84,-4.87 11.86,-7.16c2.83,-1.68 5.43,-3.51 8.07,-5.47c1.85,-1.28 3.76,-2.34 5.74,-3.41c4.57,-2.48 8.92,-5.26 13.27,-8.09c5.4,-3.5 10.86,-6.91 16.34,-10.3c3.23,-2 6.3,-4.08 9.33,-6.36c1.38,-0.8 2.78,-1.57 4.19,-2.31c4.18,-2.27 8.07,-4.83 11.96,-7.55c1.85,-1.14 1.85,-1.14 3.85,-1.14c0,-0.66 0,-1.32 0,-2c0.66,-0.22 1.31,-0.44 1.99,-0.67c4.03,-1.78 7.54,-4.15 11.2,-6.58c4.7,-3.09 9.39,-6.16 14.25,-9c3.29,-1.94 6.4,-4.02 9.5,-6.25c3.32,-2.37 6.64,-4.42 10.25,-6.31c6.1,-3.22 11.73,-7.05 17.43,-10.92c7.82,-5.27 7.82,-5.27 11.38,-5.27c0,-0.66 0,-1.32 0,-2c0.8,-0.44 1.6,-0.88 2.43,-1.33c8.16,-4.55 15.94,-9.48 23.61,-14.81c0.74,-0.5 1.47,-1 2.22,-1.52c0.65,-0.45 1.3,-0.9 1.97,-1.37c1.77,-0.97 1.77,-0.97 4.77,-0.97c0,-0.66 0,-1.32 0,-2c7.43,-4.43 7.43,-4.43 11,-5c0,-0.66 0,-1.32 0,-2c0.99,0 1.98,0 3,0c0,-0.66 0,-1.32 0,-2c0.82,-0.42 1.64,-0.85 2.49,-1.29c6.32,-3.31 12.2,-6.76 17.98,-10.96c2.77,-1.91 5.61,-3.58 8.53,-5.25c3.84,-2.19 7.48,-4.48 11.06,-7.06c4.27,-3.07 8.7,-5.52 13.34,-7.97c3.15,-1.78 5.89,-3.89 8.72,-6.11c1.82,-1.31 3.54,-2.24 5.57,-3.17c3.82,-1.8 7.19,-4.12 10.62,-6.56c4.78,-3.4 9.65,-6.32 14.83,-9.06c5.82,-3.2 11.31,-6.94 16.86,-10.57c8.9,-5.81 17.82,-11.56 26.87,-17.12c0.77,-0.48 1.54,-0.95 2.33,-1.44c0.72,-0.44 1.43,-0.87 2.17,-1.32c0.94,-0.58 0.94,-0.58 1.91,-1.17c1.72,-0.95 1.72,-0.95 4.72,-1.95c0,-0.66 0,-1.32 0,-2c0.84,-0.38 0.84,-0.38 1.7,-0.78c7.12,-3.4 13.65,-7.56 20.24,-11.88c3.87,-2.52 7.78,-4.99 11.68,-7.46c0.82,-0.52 1.63,-1.04 2.47,-1.57c5.36,-3.37 10.78,-6.58 16.28,-9.73c3.54,-2.13 6.87,-4.53 10.24,-6.94c9.67,-6.64 9.67,-6.64 13.39,-6.64c0,-0.66 0,-1.32 0,-2c0.89,-0.5 1.77,-0.99 2.69,-1.5c7.74,-4.43 15.37,-9.05 22.62,-14.25c3.44,-2.46 6.83,-4.38 10.64,-6.16c2.45,-1.3 4.61,-2.84 6.86,-4.46c3.34,-2.41 6.66,-4.48 10.31,-6.38c5.85,-3.06 11.15,-6.79 16.49,-10.64c0.65,-0.47 1.31,-0.93 1.98,-1.41c0.59,-0.43 1.17,-0.85 1.78,-1.29c1.63,-0.91 1.63,-0.91 4.63,-0.91c0,-0.66 0,-1.32 0,-2c1.46,-0.84 2.91,-1.67 4.37,-2.5c0.82,-0.46 1.63,-0.93 2.47,-1.41c2.16,-1.09 2.16,-1.09 4.16,-1.09c0,-0.66 0,-1.32 0,-2c1.04,-0.57 2.08,-1.14 3.15,-1.72c7.14,-3.94 14.04,-7.94 20.64,-12.74c2.12,-1.48 4.24,-2.71 6.52,-3.91c3.89,-2.08 7.47,-4.52 11.06,-7.07c4.83,-3.41 9.76,-6.37 14.99,-9.13c5.5,-2.98 10.69,-6.5 15.93,-9.93c1.72,-1.13 3.45,-2.26 5.17,-3.38c1.74,-1.14 3.47,-2.27 5.2,-3.41c4.67,-3.06 9.39,-5.92 14.33,-8.55c2.09,-1.15 2.09,-1.15 4.14,-2.8c1.87,-1.36 1.87,-1.36 3.87,-1.36c0,-0.66 0,-1.32 0,-2c0.63,-0.33 1.26,-0.66 1.91,-1c6.22,-3.3 12.14,-6.9 18.03,-10.75c3.21,-2.09 6.43,-4.07 9.81,-5.87c3.22,-1.74 6.16,-3.68 9.12,-5.82c4.38,-3.13 8.91,-5.71 13.67,-8.22c2.64,-1.38 2.64,-1.38 5.65,-3.53c2.81,-1.81 2.81,-1.81 6.47,-3.11c4.6,-1.68 8.51,-4.1 12.59,-6.76c1.38,-0.89 2.76,-1.78 4.14,-2.66c0.6,-0.39 1.2,-0.78 1.81,-1.18c4.47,-2.73 8.6,-3.73 13.74,-4.54c5.35,-0.89 10.65,-1.87 15.93,-3.12c4.1,-0.97 8.19,-1.92 12.32,-2.75c0.88,-0.18 1.76,-0.37 2.67,-0.55c0.7,-0.05 1.41,-0.09 2.14,-0.14z" fill="#DCC846" id="svg_4"/>
  <path d="m1496.5,1112.43c2.5,0.57 2.5,0.57 5.13,2.88c2.51,4.92 2.57,9.28 2.65,14.69c0.02,0.93 0.04,1.86 0.06,2.82c0.06,3.13 0.11,6.26 0.16,9.38c0.04,2.23 0.08,4.46 0.12,6.69c0.11,6.04 0.22,12.09 0.32,18.13c0.06,3.79 0.13,7.58 0.19,11.36c0.86,49.47 1.46,98.94 1.81,148.41c0.04,6.13 0.09,12.27 0.15,18.4c0.06,7.39 0.11,14.77 0.14,22.15c0.01,2.57 0.03,5.14 0.05,7.71c0.03,3.41 0.04,6.81 0.05,10.21c0.01,0.98 0.02,1.96 0.04,2.96c-0.01,0.88 -0.01,1.76 -0.01,2.66c0,1.13 0,1.13 0.01,2.28c-0.37,1.84 -0.37,1.84 -3.37,3.84c-2.48,-0.03 -2.48,-0.03 -5.19,-0.38c-0.9,-0.11 -1.8,-0.22 -2.73,-0.33c-0.69,-0.1 -1.37,-0.2 -2.08,-0.29c0.11,10.13 0.22,20.27 0.34,30.4c0.05,4.71 0.11,9.41 0.16,14.12c0.04,4.54 0.1,9.08 0.15,13.62c0.02,1.73 0.04,3.47 0.06,5.2c0.02,2.42 0.05,4.85 0.08,7.27c0.01,0.72 0.02,1.44 0.02,2.19c0.01,3.72 0.01,3.72 1.19,7.2c2.56,0.8 5.14,1.4 7.75,2.02c1.11,0.48 1.11,0.48 2.25,0.98c0.81,2.1 0.81,2.1 1,4c0.66,0 1.32,0 2,0c1.25,1.5 2.49,3.01 3.7,4.55c1.28,1.61 1.28,1.61 3.49,2.51c1.81,0.94 1.81,0.94 2.9,2.96c1.19,3.9 1.28,7.48 1.29,11.54c0.02,0.75 0.04,1.51 0.07,2.29c0.03,5.65 0.03,5.65 -2.48,8.26c-0.65,0.62 -1.3,1.24 -1.97,1.89c-0.34,3.25 -0.34,3.25 0.13,6.68c0.1,1.16 0.21,2.32 0.32,3.52c0.18,0.92 0.36,1.84 0.55,2.8c0.66,0.33 1.32,0.66 2,1c-1.6,0.98 -3.21,1.96 -4.81,2.93c-0.9,0.55 -1.79,1.09 -2.71,1.66c-2.48,1.41 -2.48,1.41 -5.48,2.41c-1.69,-1.3 -3.36,-2.64 -5,-4c-2.09,-0.65 -2.09,-0.65 -4,-1c-0.03,31.25 -0.05,62.5 -0.06,93.75c0,1.22 0,2.43 0,3.69c-0.03,62.28 0.03,124.55 0.28,186.83c0.01,1.32 0.01,2.63 0.02,3.99c0.09,20.97 0.18,41.94 0.27,62.91c0.09,21.67 0.18,43.34 0.27,65.01c0,0.71 0,1.42 0.01,2.15c0.31,81.64 0.29,163.28 0.27,244.92c0,1.79 0,3.59 0,5.38c-0.01,45.12 -0.03,90.24 -0.06,135.37c-2.31,0 -4.62,0 -7,0c-0.75,-37.69 -1.13,-75.38 -1.41,-113.08c-0.09,-12.05 -0.18,-24.11 -0.27,-36.16c-0.01,-0.72 -0.01,-1.44 -0.02,-2.19c-0.34,-43.84 -0.77,-87.69 -1.2,-131.54c-0.08,-7.78 -0.15,-15.56 -0.23,-23.34c-0.09,-9.63 -0.18,-19.26 -0.28,-28.9c-0.05,-4.96 -0.1,-9.92 -0.14,-14.88c-0.2,-20.21 -0.46,-40.42 -0.88,-60.63c-0.59,-28.44 -0.86,-56.88 -1.06,-85.32c-0.04,-4.94 -0.07,-9.88 -0.11,-14.81c0,-0.72 -0.01,-1.44 -0.02,-2.18c-0.01,-1.47 -0.02,-2.93 -0.03,-4.4c-0.1,-13.58 -0.2,-27.16 -0.3,-40.74c-0.08,-11.42 -0.16,-22.85 -0.25,-34.27c-0.53,-69.19 -0.98,-138.37 -0.8,-207.56c-0.95,0.02 -1.89,0.05 -2.87,0.07c-5.21,-0.13 -7.62,-3.52 -11.13,-7.07c-0.62,-0.61 -1.25,-1.21 -1.89,-1.83c-6.42,-6.66 -10.64,-15.59 -11.17,-24.9c0.35,-12.8 5.92,-22.66 14.5,-31.9c3.9,-3.62 6.16,-5.37 11.56,-5.37c0,-0.66 0,-1.32 0,-2c0.99,0 1.98,0 3,0c-0.12,-6.26 -0.24,-12.52 -0.37,-18.78c-0.05,-2.12 -0.09,-4.24 -0.13,-6.36c-0.28,-15.1 -0.28,-15.1 -0.91,-30.18c-0.06,-1.23 -0.13,-2.46 -0.2,-3.73c-0.19,-3.14 -0.19,-3.14 -2.39,-5.95c-7.15,-60.86 -2.19,-125.77 -2.19,-187.02c0,-7.35 -0.01,-14.69 -0.02,-22.04c-0.01,-7.23 -0.02,-14.45 -0.02,-21.67c0,-4.25 0,-8.51 -0.01,-12.76c-0.01,-3.94 -0.01,-7.88 0,-11.82c0,-1.44 -0.01,-2.87 -0.01,-4.31c-0.07,-18.11 -0.07,-18.11 6.27,-25.05c3.35,-2.26 6.54,-2.15 10.48,-1.9z" fill="#C7282E" id="svg_5"/>
  <path d="m608.69,1495.69c12,8.62 16.65,20.16 19.31,34.31c0.19,0.88 0.37,1.75 0.57,2.65c2.66,20.41 1.6,45.95 -10.83,63.22c-6.82,8.34 -14.99,14.07 -25.92,15.4c-11.05,0.84 -20.58,-0.05 -29.63,-6.95c-5.16,-4.81 -8.49,-11.52 -10.19,-18.32c-0.02,-1.66 -0.03,-3.33 0,-5c2.73,-0.33 5.46,-0.67 8.19,-1c0.77,-0.09 1.54,-0.19 2.33,-0.29c3.85,-0.46 7.59,-0.83 11.48,-0.71c0.59,1.86 0.59,1.86 1.19,3.75c1.53,3.99 2.93,6.18 6.81,8.25c5.58,0.62 9.25,0.24 14,-3c3.51,-4.51 5.01,-8.61 6.25,-14.06c0.18,-0.69 0.35,-1.39 0.53,-2.1c0.87,-3.68 1.43,-7.06 1.22,-10.84c-0.51,0.41 -1.01,0.82 -1.54,1.24c-0.68,0.54 -1.37,1.08 -2.08,1.64c-0.68,0.53 -1.35,1.06 -2.04,1.61c-6.86,4.43 -14.45,4.22 -22.34,3.51c-3.35,-0.87 -6.06,-2.18 -9,-4c-0.68,-0.4 -1.37,-0.8 -2.08,-1.21c-7.95,-5.24 -13.54,-14.35 -15.52,-23.62c-1.73,-13.87 -0.44,-25.51 7.85,-37.1c12.84,-15.16 34.74,-17.68 51.44,-7.38z" fill="#030303" id="svg_10"/>
  <path d="m1514.79,2343.62c7.71,4.83 13.35,10.61 16.21,19.38c0.43,2.67 0.72,5.31 1,8c-2.73,0.34 -5.46,0.67 -8.19,1c-0.77,0.1 -1.54,0.19 -2.33,0.29c-3.85,0.46 -7.59,0.84 -11.48,0.71c-0.35,-0.92 -0.35,-0.92 -0.7,-1.86c-2.05,-5.08 -2.05,-5.08 -5.55,-9.2c-3.67,-1.25 -6.96,-1.6 -10.75,-0.94c-4.87,2.43 -7.55,5.18 -10,10c-1.99,6.61 -3.49,13.09 -3,20c0.84,-0.76 1.69,-1.52 2.56,-2.31c7.35,-5.99 14.12,-6.62 23.44,-5.69c9.6,1.92 17.01,7.39 22.66,15.34c4.39,7.52 5.73,14.81 5.71,23.41c0,0.89 0,1.77 0,2.68c-0.23,12.08 -4.59,21.44 -13.24,29.9c-9.77,7.66 -21.22,8.62 -33.13,7.67c-10.83,-1.94 -18.64,-9.34 -25,-18c-7.19,-13.48 -8.27,-27.21 -8.32,-42.18c0,-1.91 0,-1.91 -0.01,-3.86c0.13,-17.66 3.31,-33.46 15.64,-46.71c11.18,-10.63 30.3,-14.54 44.48,-7.63z" fill="#020202" id="svg_11"/>
  <path d="m1497,1533c3.84,0.53 6.13,1.38 9,4c2.47,6.36 2.28,13.61 2.21,20.34c0,1 0,1.99 -0.01,3.02c0,3.31 -0.03,6.63 -0.05,9.95c-0.01,2.4 -0.02,4.8 -0.02,7.2c-0.02,5.19 -0.04,10.38 -0.07,15.57c-0.05,7.63 -0.08,15.27 -0.11,22.91c-0.05,12.68 -0.11,25.36 -0.17,38.05c-0.06,12.48 -0.12,24.97 -0.18,37.46c0,1.16 0,1.16 -0.01,2.35c-0.01,3.13 -0.02,6.27 -0.04,9.41c-0.14,34.03 -0.31,68.06 -0.48,102.1c-0.06,13.34 -0.13,26.68 -0.19,40.02c-0.36,74.58 -0.78,149.16 -1.44,223.74c-0.5,56.71 -0.74,113.42 -1,170.13c-0.01,1.22 -0.01,2.43 -0.02,3.68c-0.14,31.36 -0.28,62.71 -0.42,94.07c-1.98,0 -3.96,0 -6,0c-0.19,-52.49 -0.39,-104.98 -0.57,-157.47c0,-0.79 -0.01,-1.58 -0.01,-2.4c-0.06,-17.25 -0.12,-34.51 -0.18,-51.76c-0.03,-8.47 -0.06,-16.95 -0.09,-25.42c-0.01,-0.85 -0.01,-1.69 -0.01,-2.56c-0.09,-24.29 -0.18,-48.58 -0.27,-72.87c-0.29,-78.99 -0.58,-157.97 -0.99,-388.13c0,-8.38 -0.01,-16.75 -0.01,-25.12c-0.01,-10.97 -0.01,-21.93 0,-32.89c0,-3.97 0,-7.93 -0.01,-11.9c0,-4.51 0,-9.02 0.01,-13.52c0,-1.63 0,-3.26 0,-4.89c-0.01,-2.19 0,-4.38 0,-6.57c0,-1.22 0,-2.43 0,-3.69c0.13,-2.81 0.13,-2.81 1.13,-4.81z" fill="#E4878A" id="svg_12"/>
  <path d="m2552,2043c6.6,0 13.2,0 20,0c0,24.75 0,49.5 0,75c4.62,0 9.24,0 14,0c0,6.6 0,13.2 0,20c-4.62,0 -9.24,0 -14,0c0,7.92 0,15.84 0,24c-7.26,0 -14.52,0 -22,0c0,-7.92 0,-15.84 0,-24c-16.17,0 -32.34,0 -49,0c0,-24.05 0,-24.05 6.06,-30.94c1.3,-1.65 2.59,-3.3 3.88,-4.96c0.67,-0.83 1.34,-1.66 2.03,-2.52c3.44,-4.38 6.5,-9.02 9.59,-13.64c1.26,-1.85 2.51,-3.69 3.76,-5.53c0.62,-0.9 1.23,-1.8 1.86,-2.73c1.78,-2.61 3.56,-5.23 5.34,-7.84c0.56,-0.82 1.12,-1.64 1.69,-2.48c1.1,-1.6 2.2,-3.19 3.31,-4.77c2.81,-4.01 5.33,-7.94 7.39,-12.39c1.15,-1.89 1.15,-1.89 6.09,-7.2z" fill="#010101" id="svg_15"/>
  <path d="m2259,2453c20.13,0 40.26,0 61,0c0,6.93 0,13.86 0,21c-14.19,0 -28.38,0 -43,0c-0.33,3.3 -0.66,6.6 -1,10c-0.55,3.04 -1.27,5.99 -2,9c1.03,-0.49 2.06,-0.99 3.13,-1.5c8.72,-3.23 18.76,-2.51 27.27,1.04c9.77,5.48 16.18,13.79 19.97,24.17c1.15,4.19 1.12,8.35 1.07,12.67c-0.01,0.93 -0.02,1.86 -0.03,2.82c-0.16,6.64 -0.89,12.05 -4.41,17.8c-0.45,0.77 -0.89,1.54 -1.36,2.34c-5.45,8.79 -11.84,14.99 -21.64,18.66c-12.29,2.67 -24.87,2.11 -36,-4c-8.99,-5.84 -13.73,-14.75 -16.55,-24.87c-0.45,-2.13 -0.45,-2.13 -0.45,-5.13c2.9,-0.34 5.79,-0.67 8.69,-1c0.81,-0.1 1.63,-0.19 2.47,-0.29c3.97,-0.45 7.84,-0.84 11.84,-0.71c0.23,0.66 0.46,1.33 0.7,2.01c2.32,6.27 4.59,10.31 10.11,14.3c4.86,1.53 9.39,1.4 13.94,-0.81c4.52,-2.89 6.31,-7.42 7.83,-12.39c1.45,-7.32 1.1,-14.59 -2.3,-21.27c-2.62,-3.78 -6.03,-5.42 -10.28,-6.84c-6.88,-1.11 -11.18,0.76 -16.93,4.49c-2.15,1.49 -2.15,1.49 -4.07,3.51c-1.97,0.04 -1.97,0.04 -4.35,-0.24c-0.85,-0.1 -1.7,-0.2 -2.58,-0.3c-0.89,-0.11 -1.78,-0.22 -2.7,-0.33c-0.89,-0.11 -1.79,-0.21 -2.71,-0.32c-2.22,-0.26 -4.44,-0.53 -6.66,-0.81c0.65,-6.51 1.62,-12.88 2.81,-19.31c0.18,-0.95 0.35,-1.9 0.53,-2.88c1.35,-7.27 2.77,-14.52 4.26,-21.76c1.3,-6.34 2.33,-12.65 3.4,-19.05z" fill="#020202" id="svg_16"/>
  <path d="m2563.25,843.75c7.57,6.19 13.12,13.06 14.13,22.99c0.71,15.71 -5.37,27.57 -15.57,39.26c-6.07,6.51 -12.69,12.45 -19.44,18.26c-0.78,0.68 -1.56,1.36 -2.37,2.05c-0.68,0.58 -1.36,1.15 -2.06,1.74c-2.53,2.42 -2.53,2.42 -5.94,7.95c14.85,0 29.7,0 45,0c0,6.93 0,13.86 0,21c-26.4,0 -52.8,0 -80,0c2.71,-21.66 16.91,-37.36 32.91,-51.17c3.54,-3.1 6.92,-6.35 10.28,-9.64c0.68,-0.65 1.37,-1.3 2.07,-1.97c5.64,-5.53 9.81,-11.54 11.37,-19.39c-0.15,-5.72 -0.57,-9.45 -4.63,-13.83c-3.82,-3.37 -7.59,-3.52 -12.5,-3.35c-4.09,0.57 -6.22,1.8 -9.5,4.35c-2.81,4.22 -3.35,8.04 -4,13c-2.52,-0.14 -5.04,-0.29 -7.56,-0.44c-0.71,-0.04 -1.41,-0.08 -2.14,-0.12c-4.48,-0.27 -8.86,-0.75 -13.3,-1.44c0.04,-9.31 2.94,-17.32 9.08,-24.4c14.75,-13.89 36.96,-14.11 54.17,-4.85z" fill="#020202" id="svg_17"/>
  <path d="m1573.25,541.75c7.57,6.19 13.12,13.06 14.13,22.99c0.71,15.71 -5.37,27.57 -15.57,39.26c-6.07,6.51 -12.69,12.45 -19.44,18.26c-0.78,0.68 -1.56,1.36 -2.37,2.05c-0.68,0.58 -1.36,1.15 -2.06,1.74c-2.53,2.42 -2.53,2.42 -5.94,7.95c14.85,0 29.7,0 45,0c0,6.93 0,13.86 0,21c-26.4,0 -52.8,0 -80,0c2.71,-21.66 16.91,-37.36 32.91,-51.17c3.54,-3.1 6.92,-6.35 10.28,-9.64c0.68,-0.65 1.37,-1.3 2.07,-1.97c5.64,-5.53 9.81,-11.54 11.37,-19.39c-0.15,-5.72 -0.57,-9.45 -4.63,-13.83c-3.82,-3.37 -7.59,-3.52 -12.5,-3.35c-4.09,0.57 -6.22,1.8 -9.5,4.35c-2.81,4.22 -3.35,8.04 -4,13c-2.52,-0.14 -5.04,-0.29 -7.56,-0.44c-0.71,-0.04 -1.41,-0.08 -2.14,-0.12c-4.48,-0.27 -8.86,-0.75 -13.3,-1.44c0.04,-9.31 2.94,-17.32 9.08,-24.4c14.75,-13.89 36.96,-14.11 54.17,-4.85z" fill="#020202" id="svg_18"/>
  <path d="m1469,1474c0.99,0 1.98,0 3,0c1.28,5.27 1.99,10.03 -0.5,15c-3.25,6.79 -2.29,16.36 -0.75,23.56c1.64,4.51 3.31,8.26 7.5,10.82c0.58,0.2 1.15,0.41 1.75,0.62c0,0.66 0,1.32 0,2c0.68,0.1 1.36,0.21 2.06,0.31c3.53,0.83 6.63,2.24 9.94,3.69c0,0.65 0.01,1.3 0.01,1.97c0.11,16.28 0.22,32.55 0.33,48.83c0.05,7.87 0.11,15.75 0.16,23.62c0.06,9.18 0.12,18.36 0.18,27.53c0.01,0.79 0.01,1.57 0.02,2.38c0.13,18.6 0.29,37.2 0.54,55.8c0.01,0.8 0.02,1.6 0.03,2.42c0.03,2.46 0.07,4.92 0.1,7.37c0.73,55.38 0.95,110.75 1.15,166.12c0.03,9.31 0.06,18.63 0.1,27.94c0.27,73.24 0.44,146.47 0.38,367.02c-0.33,0 -0.66,0 -1,0c-0.01,-0.95 -0.02,-1.89 -0.02,-2.87c-0.08,-8.9 -0.17,-17.8 -0.27,-26.7c-0.05,-4.58 -0.09,-9.16 -0.13,-13.73c-0.04,-4.42 -0.09,-8.83 -0.14,-13.25c-0.02,-1.69 -0.03,-3.37 -0.04,-5.06c-0.02,-2.36 -0.05,-4.71 -0.08,-7.07c0,-0.7 -0.01,-1.4 -0.01,-2.12c-0.06,-3.62 -0.24,-5.1 -2.31,-8.2c-0.27,-2.59 -0.27,-2.59 -0.3,-5.76c-0.03,-1.8 -0.03,-1.8 -0.05,-3.65c-0.01,-1.34 -0.02,-2.67 -0.03,-4.01c-0.01,-1.42 -0.03,-2.83 -0.05,-4.24c-0.04,-3.06 -0.07,-6.11 -0.09,-9.17c-0.04,-4.9 -0.1,-9.8 -0.15,-14.69c-0.08,-6.98 -0.15,-13.95 -0.22,-20.93c-0.17,-17.09 -0.37,-34.19 -0.57,-51.29c-0.04,-2.66 -0.07,-5.32 -0.1,-7.98c-0.36,-30.52 -0.93,-61.03 -1.85,-91.54c-1.28,-42.59 -1.78,-85.18 -2.08,-127.78c-0.04,-4.94 -0.07,-9.87 -0.11,-14.81c0,-0.72 -0.01,-1.44 -0.02,-2.18c-0.01,-1.46 -0.02,-2.93 -0.03,-4.4c-0.1,-13.58 -0.2,-27.16 -0.3,-40.74c-0.08,-11.42 -0.16,-22.84 -0.25,-34.26c-0.53,-69.19 -0.98,-138.38 -0.8,-207.57c-0.95,0.03 -1.89,0.05 -2.87,0.08c-5.21,-0.13 -7.62,-3.52 -11.13,-7.08c-0.62,-0.6 -1.25,-1.2 -1.89,-1.82c-6.42,-6.66 -10.64,-15.6 -11.17,-24.91c0.3,-10.84 4.28,-21.49 12.06,-29.27z" fill="#721D20" id="svg_19"/>
  <path d="m2429,1488c7.91,4.08 13.39,9.9 17.44,17.81c1.84,10.42 0.55,17.34 -5.31,25.94c-2.48,2.62 -5.03,4.43 -8.13,6.25c-0.66,0 -1.32,0 -2,0c0,0.66 0,1.32 0,2c0.8,0.02 1.61,0.04 2.44,0.06c5.99,1.58 10.66,5.22 14.21,10.3c5.11,9.06 6.03,19 3.48,29.08c-4.15,10.66 -11.45,18.39 -21.45,23.82c-9.87,4.31 -22.52,4.5 -32.74,1.18c-10.09,-4.44 -17.54,-11.81 -22.04,-21.9c-1.43,-4 -2.03,-7.27 -1.9,-11.54c2.52,-0.34 5.04,-0.67 7.56,-1c0.71,-0.1 1.41,-0.19 2.14,-0.29c4.47,-0.58 8.79,-0.8 13.3,-0.71c0.16,0.66 0.32,1.33 0.48,2.01c1.74,6.6 3.7,10.22 9.33,14.3c4.32,1.36 8.12,1.43 12.35,-0.08c5.23,-2.76 7.37,-6.12 9.22,-11.68c1.59,-6.52 1.02,-12.68 -2.38,-18.55c-2.34,-2.53 -4.9,-4.45 -8,-6c-2.37,-0.07 -4.75,-0.08 -7.13,-0.06c-1.28,0.01 -2.56,0.02 -3.88,0.02c-0.99,0.02 -1.97,0.03 -2.99,0.04c0.14,-2.25 0.29,-4.5 0.44,-6.75c0.08,-1.25 0.16,-2.51 0.24,-3.8c0.25,-2.63 0.56,-4.93 1.32,-7.45c0.66,-0.11 1.33,-0.22 2.01,-0.33c6.04,-1.09 10.67,-1.95 14.8,-6.79c1.66,-4.03 1.9,-7.59 1.19,-11.88c-2.07,-3.47 -4.1,-5.81 -8,-7c-5.54,-0.44 -8.36,-0.27 -13,3c-0.66,0 -1.32,0 -2,0c-0.2,0.63 -0.41,1.25 -0.62,1.9c-0.27,0.82 -0.54,1.63 -0.82,2.48c-0.26,0.81 -0.53,1.62 -0.81,2.46c-0.75,2.16 -0.75,2.16 -1.75,4.16c-7.13,-0.52 -14.02,-1.44 -21,-3c0.34,-9.01 4.18,-16.73 10.75,-22.94c4.31,-3.46 9.04,-5.34 14.25,-7.06c8.71,-2.9 20.74,-1.81 29,2z" fill="#030303" id="svg_21"/>
  <path d="m595,2497c25.74,0 51.48,0 78,0c0,18 0,18 -3.81,23c-0.82,0.75 -1.64,1.51 -2.49,2.29c-22.86,22.99 -30.73,60.78 -33.7,91.71c-7.26,0 -14.52,0 -22,0c-0.22,-8.45 0.43,-16.06 2.19,-24.31c0.34,-1.64 0.34,-1.64 0.69,-3.32c5.4,-25.17 16.45,-46.41 31.12,-67.37c-24.75,-0.5 -24.75,-0.5 -50,-1c0,-6.93 0,-13.86 0,-21z" fill="#010101" id="svg_26"/>
  <path d="m468,829c6.6,0 13.2,0 20,0c0,39.27 0,78.54 0,119c-7.92,0 -15.84,0 -24,0c-0.33,-27.39 -0.66,-54.78 -1,-83c-4.29,2.97 -8.58,5.94 -13,9c-4.04,2.19 -4.04,2.19 -7.19,3.56c-1.06,0.48 -2.13,0.95 -3.23,1.44c-2.58,1 -2.58,1 -4.58,1c0,-6.93 0,-13.86 0,-21c2.43,-1.3 4.87,-2.6 7.37,-3.94c10.86,-6.01 21.54,-13.79 25.63,-26.06z" fill="#080808" id="svg_27"/>
  <path d="m1456,536c6.6,0 13.2,0 20,0c0,39.27 0,78.54 0,119c-7.92,0 -15.84,0 -24,0c-0.33,-27.39 -0.66,-54.78 -1,-83c-4.29,2.97 -8.58,5.94 -13,9c-4.04,2.19 -4.04,2.19 -7.19,3.56c-1.06,0.48 -2.13,0.95 -3.23,1.44c-2.58,1 -2.58,1 -4.58,1c0,-6.93 0,-13.86 0,-21c2.43,-1.3 4.87,-2.6 7.37,-3.94c10.86,-6.01 21.54,-13.79 25.63,-26.06z" fill="#080808" id="svg_28"/>
  <path d="m2259,405c6.6,0 13.2,0 20,0c0,39.27 0,78.54 0,119c-7.92,0 -15.84,0 -24,0c-0.33,-27.39 -0.66,-54.78 -1,-83c-4.29,2.97 -8.58,5.94 -13,9c-4.04,2.19 -4.04,2.19 -7.19,3.56c-1.06,0.48 -2.13,0.95 -3.23,1.44c-2.58,1 -2.58,1 -4.58,1c0,-6.93 0,-13.86 0,-21c2.43,-1.3 4.87,-2.6 7.37,-3.94c10.86,-6.01 21.54,-13.79 25.63,-26.06z" fill="#080808" id="svg_29"/>
  <path d="m884,404c6.6,0 13.2,0 20,0c0,39.27 0,78.54 0,119c-7.92,0 -15.84,0 -24,0c-0.33,-27.39 -0.66,-54.78 -1,-83c-4.29,2.97 -8.58,5.94 -13,9c-4.04,2.19 -4.04,2.19 -7.19,3.56c-1.06,0.48 -2.13,0.95 -3.23,1.44c-2.58,1 -2.58,1 -4.58,1c0,-6.93 0,-13.86 0,-21c2.43,-1.3 4.87,-2.6 7.37,-3.94c10.86,-6.01 21.54,-13.79 25.63,-26.06z" fill="#080808" id="svg_30"/>
  <path d="m800,404c6.6,0 13.2,0 20,0c0,39.27 0,78.54 0,119c-7.92,0 -15.84,0 -24,0c-0.33,-27.39 -0.66,-54.78 -1,-83c-4.29,2.97 -8.58,5.94 -13,9c-4.04,2.19 -4.04,2.19 -7.19,3.56c-1.06,0.48 -2.13,0.95 -3.23,1.44c-2.58,1 -2.58,1 -4.58,1c0,-6.93 0,-13.86 0,-21c2.43,-1.3 4.87,-2.6 7.37,-3.94c10.86,-6.01 21.54,-13.79 25.63,-26.06z" fill="#080808" id="svg_31"/>
  <path d="m1488,1113c3.71,-0.29 7.3,-0.44 11,0c2.95,2.6 3.77,4.31 5,8c0.15,3.01 0.23,5.99 0.28,9c0.02,0.93 0.04,1.87 0.06,2.82c0.06,3.13 0.11,6.26 0.16,9.39c0.04,2.22 0.08,4.45 0.12,6.68c0.11,6.04 0.22,12.09 0.32,18.14c0.06,3.78 0.13,7.57 0.19,11.36c1.25,72.19 2.16,144.4 1.87,216.61c-1.32,0.66 -2.64,1.32 -4,2c0,-0.99 0,-1.98 0,-3c-1.39,-0.37 -1.39,-0.37 -2.81,-0.75c-3.49,-1.37 -4.32,-2.1 -6.19,-5.25c-0.4,-2.34 -0.4,-2.34 -0.43,-4.99c-0.03,-1.53 -0.03,-1.53 -0.06,-3.09c-0.01,-1.13 -0.01,-2.26 -0.02,-3.42c-0.02,-1.2 -0.04,-2.41 -0.05,-3.66c-0.05,-3.4 -0.08,-6.8 -0.11,-10.21c-0.02,-2.95 -0.05,-5.91 -0.09,-8.87c-0.49,-43.46 -0.35,-86.94 -0.31,-130.41c0.01,-11.96 0.01,-23.92 0.02,-35.88c0.01,-24.49 0.03,-48.98 0.05,-73.47c-1.98,0.33 -3.96,0.66 -6,1c0.33,-0.66 0.66,-1.32 1,-2z" fill="#E38487" id="svg_32"/>
  <path d="m1488,1118c2.37,3.7 2.31,7.31 2.32,11.57c0.01,0.77 0.02,1.54 0.03,2.34c0.03,2.62 0.05,5.24 0.06,7.87c0.02,1.91 0.04,3.83 0.06,5.75c0.06,5.33 0.1,10.67 0.13,16.01c0.03,3.41 0.05,6.82 0.08,10.24c0.36,44.31 0.42,88.63 0.44,132.95c0,5.33 0.01,10.65 0.01,15.98c0.04,47.1 -0.29,94.19 -1.13,141.29c-0.66,0.33 -1.32,0.66 -2,1c-0.05,-0.76 -0.09,-1.52 -0.14,-2.3c-0.43,-7.13 -0.87,-14.27 -1.32,-21.4c-0.23,-3.67 -0.46,-7.34 -0.68,-11.01c-0.21,-3.54 -0.43,-7.08 -0.66,-10.62c-0.09,-1.35 -0.17,-2.7 -0.25,-4.06c-0.11,-1.89 -0.23,-3.78 -0.36,-5.67c-0.06,-1.08 -0.13,-2.15 -0.2,-3.26c-0.23,-2.9 -0.23,-2.9 -2.39,-5.68c-7.15,-60.86 -2.19,-125.77 -2.19,-187.01c0,-7.35 -0.01,-14.7 -0.02,-22.05c-0.01,-7.22 -0.02,-14.44 -0.02,-21.67c0,-4.25 0,-8.51 -0.01,-12.76c-0.01,-3.94 -0.01,-7.88 0,-11.82c0,-1.43 -0.01,-2.87 -0.01,-4.3c-0.06,-14.04 -0.06,-14.04 2.25,-19.39c3,-2 3,-2 6,-2z" fill="#6D171A" id="svg_33"/>
  <path d="m1474,1482c1.22,3.65 0.69,4.11 -0.94,7.44c-2.46,5.81 -2.85,11.31 -2.06,17.56c0.65,1.34 1.32,2.67 2,4c0,1.32 0,2.64 0,4c0.99,0.33 1.98,0.66 3,1c1.02,1.39 1.02,1.39 2.06,2.81c2.87,3.69 6.27,4.7 10.64,6.04c3.15,1.57 3.82,2.94 5.3,6.15c0.43,3.02 0.41,6.01 0.39,9.06c0.01,1.37 0.01,1.37 0.02,2.77c0.02,3.06 0.01,6.13 0.01,9.19c0,2.2 0.01,4.39 0.02,6.59c0.03,5.97 0.03,11.93 0.03,17.89c0.01,6.24 0.03,12.47 0.05,18.7c0.04,10.47 0.06,20.93 0.08,31.4c0.02,10.77 0.04,21.55 0.06,32.32c0,0.67 0.01,1.33 0.01,2.02c0.02,11.06 0.06,22.12 0.09,33.17c0.02,7.44 0.04,14.87 0.05,22.31c0,4.61 0.01,9.22 0.03,13.83c0,2.15 0,4.3 0,6.44c0.01,2.92 0.01,5.84 0.02,8.76c0,1.29 0,1.29 0,2.61c-0.35,3.78 -0.35,3.78 1.14,6.94c0.1,3.08 0.13,6.13 0.12,9.21c0,0.99 0.01,1.97 0.01,2.98c0,3.34 -0.01,6.68 -0.01,10.03c0,2.4 0,4.8 0,7.2c0,5.24 0,10.49 0,15.73c-0.01,7.8 -0.01,15.6 -0.01,23.39c0.01,13.12 0,26.23 0,39.35c-0.01,12.99 -0.01,25.98 -0.02,38.97c0,0.81 0,1.62 0,2.45c0,4.1 0,8.19 0,12.29c0,29.04 -0.01,58.09 -0.01,87.13c-0.01,28.22 -0.02,56.45 -0.03,84.67c0,0.87 0,1.74 0,2.63c0,8.73 0,17.46 0,26.19c0,17.79 0,35.58 -0.01,53.36c0,0.82 0,1.64 0,2.48c-0.01,54.65 -0.02,109.29 -0.04,163.94c-1.65,0 -3.3,0 -5,0c-0.89,-44.61 -1.24,-89.22 -1.58,-133.83c-0.05,-7.53 -0.11,-15.06 -0.17,-22.59c0,-1.01 0,-1.01 -0.01,-2.05c-0.14,-18.66 -0.31,-37.32 -0.53,-55.98c-0.01,-1.54 -0.01,-1.54 -0.03,-3.1c-0.06,-4.99 -0.12,-9.98 -0.17,-14.98c-0.48,-40.49 -0.64,-80.98 -0.51,-121.47c0.33,0 0.66,0 1,0c1.07,38.22 1.49,76.45 1.96,114.69c0.11,9 0.23,18 0.34,26.99c0.24,18.44 0.47,36.88 0.7,55.32c0.33,-2.64 0.66,-5.28 1,-8c0.33,0 0.66,0 1,0c0.15,-84.73 -0.01,-169.45 -0.39,-274.3c-0.03,-9.54 -0.07,-19.08 -0.1,-28.62c-0.2,-58.11 -0.43,-116.22 -1.21,-174.33c-0.01,-1.19 -0.01,-1.19 -0.03,-2.42c-0.02,-1.59 -0.04,-3.19 -0.06,-4.78c-0.25,-18.53 -0.4,-37.06 -0.53,-55.6c0,-1.16 0,-1.16 -0.01,-2.35c-0.07,-9.15 -0.13,-18.3 -0.19,-27.45c-0.05,-7.92 -0.1,-15.83 -0.16,-23.75c-0.11,-16.13 -0.21,-32.27 -0.32,-48.4c-3.63,-1.32 -7.26,-2.64 -11,-4c0,-0.66 0,-1.32 0,-2c-0.72,-0.16 -1.44,-0.33 -2.19,-0.5c-4.04,-2.16 -5.96,-5.36 -7.81,-9.5c-2.51,-11.44 -1.92,-21.83 4,-32z" fill="#921C20" id="svg_38"/>
  <path d="m1497,1533c3.76,0.52 6.37,1.17 9,4c0.25,3.19 0.25,3.19 0,6c-0.33,-0.66 -0.66,-1.32 -1,-2c-2.32,-0.41 -4.66,-0.74 -7,-1c0.16,1.28 0.33,2.56 0.49,3.88c0.8,8.02 0.63,16.07 0.61,24.12c0,1.82 -0.01,3.65 -0.01,5.47c0,3.94 -0.01,7.87 -0.01,11.81c-0.02,6.33 -0.02,12.66 -0.03,18.99c-0.01,9.06 -0.02,18.11 -0.03,27.17c-0.03,23.56 -0.05,47.12 -0.05,70.68c0,1.17 0,2.34 0,3.54c-0.01,46.45 0.22,92.9 0.67,139.35c0.02,1.19 0.03,2.39 0.04,3.62c0.05,5.36 0.11,10.71 0.17,16.07c0.16,14.87 0.16,29.74 0.15,44.61c-0.01,25.76 0.08,51.53 0.2,77.29c0.03,6.1 0.06,12.2 0.09,18.3c0.08,17.99 0.16,35.99 0.25,53.99c0.07,15.26 0.14,30.52 0.21,45.78c0.02,4.91 0.04,9.83 0.07,14.74c0.2,45.03 0.2,45.03 0.18,66.44c0,0.72 -0.01,1.44 -0.01,2.18c0,6.86 -0.02,13.72 -0.05,20.58c-0.01,2.02 -0.01,4.04 -0.02,6.06c-0.01,0.86 -0.01,1.73 -0.02,2.63c-0.01,4.67 0.41,9.06 1.1,13.7c0.05,2.22 0.05,4.44 0.01,6.65c-0.03,1.28 -0.05,2.56 -0.07,3.88c-0.02,0.67 -0.03,1.34 -0.05,2.03c-0.05,2.12 -0.09,4.24 -0.12,6.36c-0.09,4.48 -0.18,8.97 -0.27,13.46c-0.11,5.22 -0.21,10.44 -0.3,15.66c-0.04,2.09 -0.09,4.18 -0.14,6.27c-0.02,1.26 -0.04,2.52 -0.07,3.81c-0.02,1.12 -0.04,2.23 -0.07,3.38c-0.21,2.44 -0.21,2.44 1.08,3.5c0.13,2.5 0.13,2.5 0,5c-0.33,0.33 -0.66,0.66 -1,1c-0.16,2.59 -0.26,5.16 -0.32,7.75c-0.02,0.78 -0.04,1.55 -0.06,2.35c-0.06,2.49 -0.12,4.98 -0.18,7.46c-0.05,1.68 -0.09,3.37 -0.13,5.05c-0.11,4.13 -0.21,8.26 -0.31,12.39c-0.66,0 -1.32,0 -2,0c-0.19,-52.49 -0.39,-104.98 -0.57,-157.47c0,-0.79 -0.01,-1.58 -0.01,-2.4c-0.06,-17.25 -0.12,-34.51 -0.18,-51.76c-0.03,-8.47 -0.06,-16.95 -0.09,-25.42c-0.01,-0.85 -0.01,-1.69 -0.01,-2.56c-0.09,-24.29 -0.18,-48.58 -0.27,-72.87c-0.29,-78.99 -0.58,-157.97 -0.99,-388.13c0,-8.38 -0.01,-16.75 -0.01,-25.12c-0.01,-10.97 -0.01,-21.93 0,-32.89c0,-3.97 0,-7.93 -0.01,-11.9c0,-4.51 0,-9.02 0.01,-13.52c0,-1.63 0,-3.26 0,-4.89c-0.01,-2.19 0,-4.38 0,-6.57c0,-1.22 0,-2.43 0,-3.69c0.13,-2.81 0.13,-2.81 1.13,-4.81z" fill="#DA5A5F" id="svg_45"/>
  <path d="m1494,1396c2.64,0.33 5.28,0.66 8,1c-0.66,22.11 -1.32,44.22 -2,67c2.64,0.33 5.28,0.66 8,1c0,0.66 0,1.32 0,2c0.66,0.21 1.32,0.41 2,0.63c8.85,4.05 16.4,11.2 20.38,20.12c3.59,10.2 3.23,20.09 -0.38,30.25c-2.53,4.9 -5.27,9.02 -10,12c-0.99,0 -1.98,0 -3,0c-2.48,-9.41 -2.48,-9.41 -1,-14c0.66,0 1.32,0 2,0c1.27,-3.81 1.15,-7.4 1.13,-11.37c0,-0.76 0,-1.52 0.01,-2.29c0.02,-5.75 0.02,-5.75 -1.14,-11.34c-2.48,-1.37 -2.48,-1.37 -5,-2c0,-0.66 0,-1.32 0,-2c-1.32,-0.66 -2.64,-1.32 -4,-2c0,-0.66 0,-1.32 0,-2c-0.66,0 -1.32,0 -2,0c-0.33,-1.32 -0.66,-2.64 -1,-4c-1.07,-0.12 -2.14,-0.25 -3.25,-0.37c-3.13,-0.53 -5.14,-0.92 -7.75,-2.63c-1.5,-3.01 -1.13,-6.09 -1.11,-9.39c0,-0.76 0,-1.52 0,-2.3c0,-2.52 0,-5.05 0.01,-7.57c0,-1.74 0.01,-3.49 0.01,-5.24c0,-4.6 0.01,-9.2 0.02,-13.8c0.01,-4.69 0.02,-9.38 0.02,-14.07c0.01,-9.21 0.03,-18.42 0.05,-27.63z" fill="#DD6E71" id="svg_48"/>
  <path d="m590,1509c5.75,2.93 9.77,7.12 12.31,13.06c1.39,7.98 2.18,16.16 -2.1,23.35c-2.59,3.4 -5.19,5.25 -9.21,6.59c-4.67,0.38 -7.04,0.48 -11.25,-1.62c-3.81,-3.29 -6.16,-6.61 -7.75,-11.38c-0.18,-2.91 -0.28,-5.78 -0.31,-8.69c-0.03,-0.78 -0.06,-1.55 -0.09,-2.35c-0.06,-5.79 1.13,-10.15 4.4,-14.96c4.36,-3.96 8.29,-5.12 14,-4z" fill="#FAFAFA" id="svg_51"/>
  <path d="m1500,2400c4.89,1.82 7.26,3.78 9.94,8.25c3.32,7.42 3.48,16.6 1.33,24.41c-2.23,4.87 -5.55,7.98 -10.27,10.34c-5.03,0.61 -8.01,0.44 -12.25,-2.44c-5.5,-4.69 -7.4,-9.27 -8.16,-16.42c-0.35,-6.75 -0.45,-13.11 3.93,-18.66c4.68,-4.69 8.83,-6.69 15.48,-5.48z" fill="#F7F5F5" id="svg_52"/>
  <path d="m1488,1983c0.33,0 0.66,0 1,0c1.07,38.22 1.49,76.45 1.96,114.69c0.11,9 0.23,18 0.34,26.99c0.24,18.44 0.47,36.88 0.7,55.32c0.5,-3.96 0.5,-3.96 1,-8c0.33,0 0.66,0 1,0c0.18,13.25 0.34,26.5 0.5,39.75c0.01,0.99 0.02,1.98 0.04,3.01c0.35,29.93 0.55,59.86 0.52,89.8c0,0.84 0,1.67 0,2.53c-0.01,9.97 -0.03,19.94 -0.06,29.91c-1.32,0 -2.64,0 -4,0c-0.89,-44.61 -1.24,-89.22 -1.58,-133.83c-0.05,-7.53 -0.11,-15.06 -0.17,-22.59c0,-0.68 -0.01,-1.35 -0.01,-2.05c-0.14,-18.66 -0.31,-37.32 -0.53,-55.98c-0.01,-1.02 -0.02,-2.05 -0.03,-3.1c-0.06,-4.99 -0.12,-9.98 -0.17,-14.98c-0.48,-40.49 -0.64,-80.98 -0.51,-121.47z" fill="#873E41" id="svg_54"/>
  <path d="m1497,1533c3.76,0.52 6.37,1.17 9,4c0.25,3.19 0.25,3.19 0,6c-0.33,-0.66 -0.66,-1.32 -1,-2c-2.32,-0.41 -4.66,-0.74 -7,-1c0.16,1.26 0.33,2.51 0.49,3.8c0.84,8.42 0.62,16.87 0.59,25.32c0,1.96 0,3.91 -0.01,5.87c-0.01,5.36 -0.02,10.72 -0.04,16.07c-0.02,5.79 -0.03,11.57 -0.04,17.36c-0.02,10.02 -0.04,20.03 -0.07,30.05c-0.04,14.48 -0.07,28.97 -0.1,43.45c-0.06,23.5 -0.11,47 -0.17,70.49c-0.06,22.83 -0.12,45.65 -0.17,68.48c0,0.7 0,1.41 0,2.13c-0.02,7.07 -0.04,14.14 -0.05,21.21c-0.03,14.4 -0.07,28.8 -0.1,43.2c0,0.66 0,1.32 -0.01,2c-0.1,44.19 -0.21,88.38 -0.32,132.57c-0.33,0 -0.66,0 -1,0c-0.35,-79.44 -0.68,-158.88 -1.12,-383.35c0,-8.39 -0.01,-16.79 -0.01,-25.18c-0.01,-11.2 -0.01,-22.41 0,-33.61c0,-4.08 0,-8.17 -0.01,-12.25c0,-4.66 0,-9.32 0.01,-13.98c0,-1.68 0,-3.37 0,-5.06c-0.01,-2.27 0,-4.54 0,-6.82c0,-1.26 0,-2.53 0,-3.83c0.13,-2.92 0.13,-2.92 1.13,-4.92z" fill="#D85358" id="svg_55"/>
  <path d="m1489,1116c1.6,1.13 1.6,1.13 3,3c0.37,2.66 0.37,2.66 0.37,5.93c0.01,1.24 0.01,2.49 0.02,3.77c-0.01,1.4 -0.02,2.79 -0.03,4.18c0,1.47 0,2.94 0.01,4.41c0.01,4.05 -0.01,8.1 -0.02,12.16c-0.01,4.36 -0.01,8.73 -0.01,13.09c0,7.57 -0.01,15.14 -0.02,22.71c-0.03,10.94 -0.04,21.88 -0.04,32.82c-0.01,17.75 -0.03,35.5 -0.05,53.26c-0.03,17.24 -0.05,34.49 -0.07,51.74c0,1.59 0,1.59 0,3.22c0,5.33 -0.01,10.66 -0.01,15.99c-0.03,44.24 -0.08,88.48 -0.15,132.72c-0.99,0 -1.98,0 -3,0c-3.17,-5.21 -3.4,-9.22 -3.29,-15.12c0,-0.85 0.01,-1.71 0.01,-2.59c0.02,-2.73 0.05,-5.44 0.09,-8.16c0.02,-1.86 0.03,-3.71 0.04,-5.56c0.04,-4.52 0.09,-9.05 0.15,-13.57c0.33,0 0.66,0 1,0c0.66,10.56 1.32,21.12 2,32c0.88,-49.54 1.17,-99.07 1.13,-148.62c-0.01,-5.71 -0.01,-11.42 -0.01,-17.12c-0.01,-44.45 -0.07,-88.89 -0.53,-133.33c-0.03,-3.04 -0.06,-6.08 -0.09,-9.12c-0.04,-4.61 -0.09,-9.22 -0.15,-13.83c-0.02,-1.63 -0.04,-3.26 -0.06,-4.89c-0.02,-2.16 -0.05,-4.33 -0.08,-6.49c-0.02,-1.19 -0.04,-2.38 -0.05,-3.61c-0.13,-2.51 -0.43,-4.6 -1.16,-6.99c-1.65,0.66 -3.3,1.32 -5,2c0.33,-0.99 0.66,-1.98 1,-3c3,-1 3,-1 5,-1z" fill="#A72025" id="svg_56"/>
  <path d="m1493,1114c1.32,0 2.64,0 4,0c-0.16,0.73 -0.32,1.45 -0.49,2.2c-0.48,2.62 -0.63,4.96 -0.63,7.62c-0.01,0.94 -0.01,1.89 -0.01,2.87c0.01,1.54 0.01,1.54 0.01,3.12c0,1.11 0,2.21 0,3.35c0,3.7 0,7.4 0.01,11.1c0,2.65 0,5.3 0,7.95c0,5.71 0,11.43 0,17.14c0.01,8.25 0.02,16.51 0.02,24.77c0,13.39 0.01,26.79 0.01,40.19c0.01,13.01 0.02,26.02 0.03,39.04c0,0.8 0,1.6 0,2.43c0,4.02 0,8.05 0,12.07c0.01,33.38 0.03,66.77 0.05,100.15c1.11,0.29 2.23,0.58 3.38,0.88c3.62,1.12 3.62,1.12 5.62,3.12c-0.37,2.63 -0.37,2.63 -1,5c-0.49,-1.49 -0.49,-1.49 -1,-3c-0.95,-0.31 -1.9,-0.62 -2.87,-0.94c-3.54,-1.2 -4.27,-1.92 -6.13,-5.06c-0.4,-2.34 -0.4,-2.34 -0.43,-4.99c-0.02,-1.02 -0.04,-2.04 -0.06,-3.09c-0.01,-1.13 -0.01,-2.26 -0.02,-3.42c-0.02,-1.2 -0.04,-2.41 -0.05,-3.66c-0.05,-3.4 -0.08,-6.8 -0.11,-10.21c-0.02,-2.95 -0.05,-5.91 -0.09,-8.87c-0.49,-43.46 -0.35,-86.94 -0.31,-130.41c0.01,-11.96 0.01,-23.92 0.02,-35.88c0.01,-24.49 0.03,-48.98 0.05,-73.47z" fill="#D74E53" id="svg_59"/>
  <path d="m2548,2080c0.33,0 0.66,0 1,0c0,12.54 0,25.08 0,38c-8.58,0 -17.16,0 -26,0c5.62,-10.12 5.62,-10.12 8.85,-14.7c0.69,-0.98 1.37,-1.96 2.08,-2.97c0.7,-1 1.41,-1.99 2.13,-3.02c1.41,-2 2.82,-4 4.23,-6.01c0.65,-0.92 1.29,-1.84 1.96,-2.79c1.43,-2.05 2.82,-4.12 4.18,-6.22c0.52,-0.75 1.04,-1.51 1.57,-2.29z" fill="#FCFCFC" id="svg_60"/>
  <path d="m1495.81,2403.81c3.12,0.18 4.52,0.73 7.19,2.19c0.05,4.38 0.08,8.75 0.11,13.13c0.01,1.49 0.02,2.98 0.04,4.47c0.02,2.14 0.03,4.28 0.04,6.42c0.01,1.29 0.02,2.58 0.03,3.9c-0.22,3.08 -0.22,3.08 -2.22,5.08c-6.33,0.34 -6.33,0.34 -9,-1c-0.03,-4.68 -0.05,-9.37 -0.06,-14.05c0,-1.59 -0.01,-3.18 -0.02,-4.78c-0.01,-2.28 -0.02,-4.57 -0.02,-6.86c-0.01,-0.71 -0.01,-1.43 -0.02,-2.17c0,-1.71 0.06,-3.43 0.12,-5.14c1,-1 1,-1 3.81,-1.19z" fill="#C63A3F" id="svg_61"/>
  <path d="m1491,1320c0.33,0 0.66,0 1,0c0,51.15 0,102.3 0,155c-0.99,0 -1.98,0 -3,0c-3.17,-5.21 -3.4,-9.22 -3.29,-15.12c0,-0.85 0.01,-1.71 0.01,-2.59c0.02,-2.73 0.05,-5.44 0.09,-8.16c0.02,-1.86 0.03,-3.71 0.04,-5.56c0.04,-4.52 0.09,-9.05 0.15,-13.57c0.33,0 0.66,0 1,0c0.66,10.56 1.32,21.12 2,32c0.66,-46.86 1.32,-93.72 2,-142z" fill="#882124" id="svg_62"/>
  <path d="m1501,1399c0.14,21.69 -0.18,43.32 -1,65c2.64,0.33 5.28,0.66 8,1c0,0.33 0,0.66 0,1c-5.94,0.5 -5.94,0.5 -12,1c0,-22.11 0,-44.22 0,-67c4,-1 4,-1 5,-1z" fill="#E38689" id="svg_63"/>
  <path d="m1476,1516c0.99,0.33 1.98,0.66 3,1c0,0.66 0,1.32 0,2c0.66,0 1.32,0 2,0c0,0.66 0,1.32 0,2c0.89,0.12 1.77,0.25 2.69,0.38c3.89,0.73 6.98,1.39 9.93,4.13c2.09,3.77 1.78,7.3 1.74,11.55c0,0.93 0.01,1.85 0.01,2.81c0,3.11 -0.01,6.22 -0.03,9.33c0,2.23 0,4.45 0,6.68c0,6.06 -0.01,12.11 -0.04,18.16c-0.01,6.32 -0.02,12.65 -0.02,18.97c-0.01,10.62 -0.03,21.23 -0.05,31.85c-0.03,10.93 -0.05,21.87 -0.07,32.8c0,0.68 0,1.35 0,2.04c0,3.39 -0.01,6.77 -0.01,10.15c-0.03,28.05 -0.08,56.1 -0.15,84.15c-0.33,0 -0.66,0 -1,0c0,-1.14 0,-2.29 -0.01,-3.47c-0.06,-27.83 -0.13,-55.66 -0.23,-83.5c0,-2.68 -0.01,-5.35 -0.02,-8.03c0,-0.67 -0.01,-1.33 -0.01,-2.02c-0.03,-10.78 -0.06,-21.56 -0.08,-32.34c-0.02,-11.06 -0.06,-22.12 -0.1,-33.18c-0.02,-6.21 -0.04,-12.42 -0.05,-18.63c0,-5.85 -0.02,-11.69 -0.05,-17.54c-0.01,-2.14 -0.02,-4.29 -0.02,-6.44c0.01,-2.93 -0.01,-5.85 -0.03,-8.78c0,-0.86 0.01,-1.71 0.01,-2.59c-0.05,-4.63 -0.38,-7.73 -3.41,-11.48c-2.32,-1.3 -2.32,-1.3 -4.94,-2.06c-3.86,-1.39 -6.56,-2.53 -9.06,-5.94c0,-0.66 0,-1.32 0,-2z" fill="#A92025" id="svg_64"/>
  <path d="m1497,1533c3.79,0.53 6.17,1.38 9,4c0,0.66 0,1.32 0,2c-2.64,-0.33 -5.28,-0.66 -8,-1c-0.33,71.28 -0.66,142.56 -1,216c-0.33,0 -0.66,0 -1,0c-0.02,-28.52 -0.04,-57.04 -0.05,-85.56c-0.01,-13.24 -0.01,-26.48 -0.03,-39.72c-0.01,-11.54 -0.01,-23.08 -0.01,-34.61c-0.01,-6.12 -0.01,-12.23 -0.02,-18.34c0,-5.75 0,-11.49 0,-17.24c0,-2.12 -0.01,-4.23 -0.01,-6.35c0,-2.87 0,-5.75 0,-8.63c0,-0.84 -0.01,-1.69 -0.01,-2.56c0.02,-5.76 0.02,-5.76 1.13,-7.99z" fill="#D6484D" id="svg_65"/>
  <path d="m1482,1468c0,1.65 0,3.3 0,5c0.99,0 1.98,0 3,0c0.44,2.56 0.44,2.56 0,6c-1.61,1.97 -3.37,3.61 -5.25,5.32c-2.07,1.99 -3.33,4.21 -4.75,6.68c-0.66,0 -1.32,0 -2,0c-0.48,8.72 0.93,16.55 3,25c-3,-1 -3,-1 -4.69,-4.31c-2.48,-7.37 -2.46,-14.78 0.88,-21.81c1.84,-3.98 1.9,-6.12 0.62,-10.32c-0.58,-1.53 -1.18,-3.05 -1.81,-4.56c-0.33,-0.99 -0.66,-1.98 -1,-3c4.19,-3.19 6.71,-4.5 12,-4z" fill="#A2272B" id="svg_66"/>
  <path d="m1493,1114c1.32,0 2.64,0 4,0c-0.16,0.72 -0.33,1.45 -0.49,2.2c-0.48,2.63 -0.63,4.98 -0.63,7.65c0,0.95 0,1.9 0,2.88c0,1.03 0,2.06 0.01,3.12c0,1.09 0,2.19 0,3.31c0,3.61 0,7.22 0.01,10.83c0,2.5 0.01,5.01 0.01,7.51c0,5.91 0.01,11.83 0.02,17.74c0.01,7.4 0.02,14.8 0.02,22.19c0.01,13.19 0.03,26.38 0.05,39.57c-0.33,0 -0.66,0 -1,0c-0.06,-0.77 -0.12,-1.54 -0.18,-2.34c-0.09,-1 -0.17,-2 -0.26,-3.03c-0.08,-1 -0.16,-2 -0.24,-3.03c-0.17,-2.58 -0.17,-2.58 -1.32,-4.6c-0.09,-1.39 -0.12,-2.79 -0.12,-4.19c0,-1.32 0,-1.32 0,-2.66c0,-0.96 0,-1.93 0.01,-2.92c0,-1.02 0,-2.03 0,-3.08c0,-3.36 0,-6.73 0.01,-10.1c0,-2.32 0.01,-4.65 0.01,-6.98c0,-6.14 0.01,-12.28 0.02,-18.42c0.01,-6.26 0.02,-12.52 0.02,-18.78c0.01,-12.29 0.03,-24.58 0.05,-36.87z" fill="#DB6065" id="svg_67"/>
  <path d="m1493,1114c0.16,14.41 0.3,28.82 0.44,43.23c0.07,6.69 0.13,13.39 0.21,20.09c0.37,34.25 0.31,68.44 -0.65,102.68c-0.33,0 -0.66,0 -1,0c0,-53.13 0,-106.26 0,-161c-0.99,-0.33 -1.98,-0.66 -3,-1c0,-0.66 0,-1.32 0,-2c-1.32,0.33 -2.64,0.66 -4,1c1.77,-3.54 4.3,-3 8,-3z" fill="#CE2F35" id="svg_68"/>
  <path d="m1492,2405c1.65,0 3.3,0 5,0c0,10.89 0,21.78 0,33c-1.65,0 -3.3,0 -5,0c0,-10.89 0,-21.78 0,-33z" fill="#8B3033" id="svg_69"/>
  <path d="m1499.09,2363.77c1.91,0.23 1.91,0.23 3.91,2.23c0.2,3.04 0.2,3.04 0.13,6.63c-0.02,1.18 -0.04,2.37 -0.06,3.6c-0.02,0.91 -0.05,1.83 -0.07,2.77c-3.63,0 -7.26,0 -11,0c-0.03,-2.31 -0.05,-4.62 -0.06,-6.94c-0.01,-1.28 -0.03,-2.57 -0.04,-3.9c0.17,-5.43 2.27,-4.29 7.19,-4.39z" fill="#8F2428" id="svg_70"/>
  <path d="m1494,1396c2.64,0.33 5.28,0.66 8,1c0,0.33 0,0.66 0,1c-2.31,0 -4.62,0 -7,0c0.11,9.32 0.22,18.64 0.34,27.96c0.05,4.32 0.11,8.65 0.16,12.98c0.05,4.17 0.1,8.35 0.15,12.52c0.02,1.6 0.04,3.19 0.06,4.78c0.02,2.23 0.05,4.47 0.08,6.7c0.02,1.27 0.04,2.54 0.05,3.85c0.15,3.7 0.15,3.7 1.16,7.21c2.8,1.13 2.8,1.13 6,2c4.08,2.04 6.24,4.41 9,8c1.48,0.99 1.48,0.99 3,2c-0.33,1.32 -0.66,2.64 -1,4c-0.33,-0.99 -0.66,-1.98 -1,-3c-2,-1.21 -2,-1.21 -4,-2c0,-0.66 0,-1.32 0,-2c-0.66,0 -1.32,0 -2,0c-0.33,-1.32 -0.66,-2.64 -1,-4c-1.07,-0.12 -2.14,-0.25 -3.25,-0.37c-3.13,-0.53 -5.14,-0.92 -7.75,-2.63c-1.5,-3.01 -1.13,-6.09 -1.11,-9.39c0,-0.76 0,-1.52 0,-2.3c0,-2.52 0,-5.05 0.01,-7.57c0,-1.74 0.01,-3.49 0.01,-5.24c0,-4.6 0.01,-9.2 0.02,-13.8c0.01,-4.69 0.02,-9.38 0.02,-14.07c0.01,-9.21 0.03,-18.42 0.05,-27.63z" fill="#D85357" id="svg_71"/>
  <path d="m1495,1390c2.64,1.32 5.28,2.64 8,4c0,0.99 0,1.98 0,3c-2.97,-0.33 -5.94,-0.66 -9,-1c0.11,10.14 0.22,20.27 0.34,30.41c0.05,4.7 0.11,9.41 0.16,14.11c0.04,4.54 0.1,9.08 0.15,13.62c0.02,1.73 0.04,3.47 0.06,5.2c0.02,2.43 0.05,4.85 0.08,7.27c0.01,0.72 0.02,1.45 0.02,2.19c0.01,3.73 0.01,3.73 1.19,7.2c2.34,0.91 2.34,0.91 5.06,1.63c0.92,0.26 1.84,0.52 2.79,0.78c0.71,0.2 1.42,0.39 2.15,0.59c0,0.33 0,0.66 0,1c-4.02,0.32 -6.53,0.22 -10.2,-1.52c-2.8,-2.48 -2.8,-2.48 -3.52,-6.04c-0.02,-1.44 0,-2.89 0.04,-4.33c0,-0.79 0,-1.58 0,-2.4c0,-2.6 0.05,-5.21 0.09,-7.82c0.02,-1.81 0.02,-3.62 0.03,-5.43c0.02,-4.76 0.08,-9.52 0.15,-14.28c0.06,-4.86 0.09,-9.72 0.12,-14.58c0.06,-9.54 0.16,-19.07 0.29,-28.6c0.99,-0.33 1.98,-0.66 3,-1c-0.33,-1.32 -0.66,-2.64 -1,-4z" fill="#D2373D" id="svg_72"/>
  <path d="m1474,1482c1.22,3.65 0.69,4.11 -0.94,7.44c-2.46,5.81 -2.85,11.31 -2.06,17.56c0.65,1.34 1.32,2.67 2,4c0,1.32 0,2.64 0,4c0.99,0.33 1.98,0.66 3,1c1.02,1.39 1.02,1.39 2.06,2.81c2.88,3.72 6.33,4.71 10.73,6.04c2.21,1.15 2.21,1.15 4.21,6.15c-4.29,-1.65 -8.58,-3.3 -13,-5c0,-0.66 0,-1.32 0,-2c-0.72,-0.16 -1.44,-0.33 -2.19,-0.5c-4.04,-2.16 -5.96,-5.36 -7.81,-9.5c-2.51,-11.44 -1.92,-21.83 4,-32z" fill="#901B20" id="svg_73"/>
  <path d="m1482,1473c0.99,0 1.98,0 3,0c0.44,2.56 0.44,2.56 0,6c-1.61,1.97 -3.37,3.61 -5.25,5.32c-2.07,1.99 -3.33,4.21 -4.75,6.68c-0.66,0 -1.32,0 -2,0c-0.48,8.72 0.93,16.55 3,25c-3,-1 -3,-1 -4.69,-4.31c-2.27,-6.66 -2.39,-13.79 0.06,-20.38c1.63,-2.31 1.63,-2.31 3.63,-3.31c0.84,-1.96 1.47,-3.96 2.12,-5.99c0.97,-2.22 2.15,-3.36 3.88,-5.01c0.71,-2.1 0.71,-2.1 1,-4z" fill="#B32227" id="svg_74"/>
  <path d="m1491,1394c0.33,0 0.66,0 1,0c0,26.73 0,53.46 0,81c-0.99,0 -1.98,0 -3,0c-3.08,-5.29 -3.08,-5.29 -2.69,-8.87c0.23,-0.71 0.46,-1.41 0.69,-2.13c0.43,0.96 0.43,0.96 0.87,1.94c0.96,2.21 0.96,2.21 3.13,3.06c0,-24.75 0,-49.5 0,-75z" fill="#9D1E23" id="svg_75"/>
  <path d="m1495,1322c0.33,0 0.66,0 1,0c0,21.78 0,43.56 0,66c2.31,0.66 4.62,1.32 7,2c0.66,0.66 1.32,1.32 2,2c-0.37,2.63 -0.37,2.63 -1,5c-0.33,-0.99 -0.66,-1.98 -1,-3c-1.98,-0.72 -3.98,-1.38 -6,-2c-2,-2 -2,-2 -2.24,-4.82c0,-1.21 0.01,-2.41 0.01,-3.65c0,-0.66 0,-1.33 0,-2.01c0,-2.2 0.02,-4.39 0.03,-6.59c0.01,-1.52 0.01,-3.04 0.01,-4.57c0.01,-4 0.03,-8.01 0.05,-12.02c0.02,-4.09 0.03,-8.18 0.04,-12.27c0.02,-8.02 0.06,-16.05 0.1,-24.07z" fill="#DB5E62" id="svg_76"/>
  <path d="m1500,2405c0.99,0.33 1.98,0.66 3,1c0,10.23 0,20.46 0,31c-0.99,0.49 -0.99,0.49 -2,1c-1.95,-4.06 -2.18,-7.13 -1.98,-11.61c0.05,-1.25 0.11,-2.5 0.16,-3.78c0.06,-1.3 0.13,-2.59 0.19,-3.92c0.06,-1.32 0.12,-2.63 0.18,-3.98c0.14,-3.24 0.29,-6.47 0.45,-9.71z" fill="#E07579" id="svg_77"/>
  <path d="m1493,1114c0,24.09 0,48.18 0,73c-0.33,0 -0.66,0 -1,0c0,-22.44 0,-44.88 0,-68c-0.99,-0.33 -1.98,-0.66 -3,-1c0,-0.66 0,-1.32 0,-2c-1.32,0.33 -2.64,0.66 -4,1c1.77,-3.54 4.3,-3 8,-3z" fill="#D43F44" id="svg_78"/>
  <path d="m1476,1516c0.99,0.33 1.98,0.66 3,1c0,0.66 0,1.32 0,2c0.66,0 1.32,0 2,0c0,0.66 0,1.32 0,2c0.89,0.12 1.77,0.25 2.69,0.38c7.15,1.34 7.15,1.34 9.93,4.4c1.59,2.56 1.75,3.91 1.72,6.9c0,0.92 0,1.84 0,2.79c-0.02,0.98 -0.03,1.97 -0.05,2.98c0,1.02 -0.01,2.03 -0.01,3.08c-0.02,3.24 -0.05,6.48 -0.09,9.72c-0.02,2.2 -0.03,4.4 -0.04,6.59c-0.04,5.39 -0.09,10.77 -0.15,16.16c-0.33,0 -0.66,0 -1,0c-0.01,-1.28 -0.03,-2.55 -0.04,-3.87c-0.06,-4.74 -0.14,-9.48 -0.22,-14.23c-0.04,-2.05 -0.06,-4.1 -0.09,-6.15c-0.03,-2.95 -0.08,-5.9 -0.14,-8.86c0,-0.91 -0.01,-1.83 -0.02,-2.77c-0.11,-4.81 -0.3,-8.25 -3.49,-12.12c-2.32,-1.3 -2.32,-1.3 -4.94,-2.06c-3.86,-1.39 -6.56,-2.53 -9.06,-5.94c0,-0.66 0,-1.32 0,-2z" fill="#B42328" id="svg_79"/>
  <path d="m1515,1490c3,1 3,1 4.17,3.02c1.09,3.92 1.16,7.55 1.14,11.61c0.02,0.76 0.03,1.52 0.05,2.31c0.01,5.57 0.01,5.57 -1.88,8.08c-0.49,0.33 -0.98,0.65 -1.48,0.98c-2.12,-3.49 -2.12,-3.49 -1.57,-5.81c0.19,-0.72 0.38,-1.44 0.57,-2.19c0.32,-6.08 0.07,-12.01 -1,-18z" fill="#D44146" id="svg_80"/>
  <path d="m1493,2364c6.05,-0.2 6.05,-0.2 8,0c2,2 2,2 2.2,5.04c-0.03,1.18 -0.05,2.37 -0.07,3.59c-0.02,1.18 -0.04,2.37 -0.06,3.6c-0.02,0.91 -0.05,1.83 -0.07,2.77c-1.65,0 -3.3,0 -5,0c0,-4.62 0,-9.24 0,-14c-1.65,0 -3.3,0 -5,0c0,-0.33 0,-0.66 0,-1z" fill="#DC7579" id="svg_81"/>
  <path d="m1505.63,1523.88c1.67,0.06 1.67,0.06 3.38,0.13c-1.3,2.88 -2.66,4.87 -5.01,7c1.65,1.98 3.3,3.96 5.01,6c-1,0.33 -1.98,0.66 -3,1c-2.82,-1.52 -5.02,-3.5 -7.01,-6c-0.06,-3.25 -0.06,-3.25 1,-6c2,-2 2,-2 5.63,-2.13z" fill="#BE252A" id="svg_82"/>
  <path d="m1498,1456c0.33,0 0.66,0 1,0c0.33,2.31 0.66,4.62 1,7c2.64,0.66 5.28,1.32 8,2c0,0.33 0,0.66 0,1c-5.94,0.49 -5.94,0.49 -12,1c-0.29,-7.43 -0.29,-7.43 2,-11z" fill="#E3898D" id="svg_83"/>
  <path d="m1493,1114c0,6.93 0,13.86 0,21c-0.33,0 -0.66,0 -1,0c0,-5.28 0,-10.56 0,-16c-0.99,-0.33 -1.98,-0.66 -3,-1c0,-0.66 0,-1.32 0,-2c-1.32,0.33 -2.64,0.66 -4,1c1.77,-3.54 4.3,-3 8,-3z" fill="#CA363B" id="svg_84"/>
  <path d="m1515,1486c0.99,0.49 0.99,0.49 2,1c0,0.66 0,1.32 0,2c0.66,0 1.32,0 2,0c1.9,4.08 2.43,7.71 2.75,12.19c0.15,1.84 0.15,1.84 0.3,3.73c-0.05,3.08 -0.05,3.08 -2.05,5.08c-0.06,-0.95 -0.12,-1.91 -0.18,-2.89c-0.09,-1.25 -0.17,-2.51 -0.26,-3.8c-0.08,-1.24 -0.16,-2.48 -0.24,-3.76c-0.26,-2.93 -0.67,-5.68 -1.32,-8.55c-0.99,-0.33 -1.98,-0.66 -3,-1c0,-1.32 0,-2.64 0,-4z" fill="#DB6166" id="svg_85"/>
  <path d="m1495,1390c2.64,1.32 5.28,2.64 8,4c0,0.99 0,1.98 0,3c-3.3,0 -6.6,0 -10,0c0.33,-0.99 0.66,-1.98 1,-3c0.66,0 1.32,0 2,0c-0.33,-1.32 -0.66,-2.64 -1,-4z" fill="#D13339" id="svg_86"/>
  <path d="m1504.56,1525.94c1.21,0.03 1.21,0.03 2.44,0.06c0,2 0,2 -1.5,3.63c-0.5,0.45 -0.99,0.9 -1.5,1.37c1.65,1.98 3.3,3.96 5,6c-5.96,-2.09 -5.96,-2.09 -8,-5c-0.25,-2.62 -0.25,-2.62 0,-5c1,-1 1,-1 3.56,-1.06z" fill="#A72025" id="svg_87"/>
  <path d="m1497,1533c3.79,0.53 6.17,1.38 9,4c0,0.66 0,1.32 0,2c-2.02,-0.29 -4.04,-0.59 -6.05,-0.88c-2.03,-0.29 -2.03,-0.29 -3.95,0.88c0.33,-1.98 0.66,-3.96 1,-6z" fill="#D54348" id="svg_88"/>
  <path d="m1498,2365c0.66,0 1.32,0 2,0c0.33,4.62 0.66,9.24 1,14c-0.99,0 -1.98,0 -3,0c0,-4.62 0,-9.24 0,-14z" fill="#D44247" id="svg_89"/>
  <path d="m1502,2284c0.33,0 0.66,0 1,0c0.03,3.21 0.05,6.42 0.06,9.63c0.01,0.9 0.02,1.8 0.03,2.73c0.01,4.67 -0.12,9.05 -1.09,13.64c-2.2,-3.5 -1.81,-5.05 -1,-9c0.26,-2.93 0.41,-5.87 0.56,-8.81c0.05,-0.79 0.09,-1.58 0.13,-2.39c0.11,-1.93 0.21,-3.87 0.31,-5.8z" fill="#E17B7F" id="svg_90"/>
  <path d="m1489,1116c2.53,3.79 2.22,6.81 2.13,11.19c-0.01,0.75 -0.02,1.5 -0.03,2.27c-0.03,1.85 -0.06,3.69 -0.1,5.54c-0.33,0 -0.66,0 -1,0c-0.06,-0.89 -0.12,-1.78 -0.18,-2.7c-0.09,-1.17 -0.17,-2.34 -0.26,-3.55c-0.08,-1.16 -0.16,-2.32 -0.24,-3.52c-0.25,-2.54 -0.6,-4.79 -1.32,-7.23c-1.65,0.66 -3.3,1.32 -5,2c0.33,-0.99 0.66,-1.98 1,-3c3,-1 3,-1 5,-1z" fill="#9B272B" id="svg_91"/>
  <path d="m1494,1114c0.99,0 1.98,0 3,0c-0.15,0.63 -0.31,1.27 -0.46,1.92c-0.72,4.12 -0.9,8.22 -1.1,12.39c-0.05,0.84 -0.09,1.67 -0.13,2.54c-0.11,2.05 -0.21,4.1 -0.31,6.15c-0.33,0 -0.66,0 -1,0c0,-7.59 0,-15.18 0,-23z" fill="#DC6469" id="svg_92"/>
  <path d="m1506,1480c3.44,1.53 6.12,3.6 9,6c-0.33,1.32 -0.66,2.64 -1,4c-0.33,-0.99 -0.66,-1.98 -1,-3c-2,-1.21 -2,-1.21 -4,-2c0,-0.66 0,-1.32 0,-2c-0.66,0 -1.32,0 -2,0c-0.33,-0.99 -0.66,-1.98 -1,-3z" fill="#D44247" id="svg_93"/>
  <path d="m1495,1474c1.61,0.43 3.21,0.87 4.81,1.31c1.34,0.37 1.34,0.37 2.71,0.74c2.53,0.97 3.75,1.9 5.48,3.95c-1.42,-0.28 -2.83,-0.58 -4.25,-0.87c-0.79,-0.17 -1.58,-0.33 -2.39,-0.5c-2.33,-0.62 -4.25,-1.48 -6.36,-2.63c0,-0.66 0,-1.32 0,-2z" fill="#D74E53" id="svg_94"/>
  <path d="m1487,1464c0.33,0 0.66,0 1,0c0.29,1.13 0.58,2.27 0.88,3.44c0.37,1.17 0.74,2.35 1.12,3.56c0.66,0.33 1.32,0.66 2,1c-0.33,1.32 -0.66,2.64 -1,4c-2.74,-2.3 -3.9,-3.61 -4.81,-7.12c-0.19,-2.88 -0.19,-2.88 0.81,-4.88z" fill="#B02328" id="svg_95"/>
  <path d="m1504,1396c0.66,0.33 1.32,0.66 2,1c-0.71,0.5 -0.71,0.5 -1.44,1c-2.42,3.1 -2.24,6.12 -2.56,10c-0.33,0 -0.66,0 -1,0c-0.08,-1.62 -0.14,-3.25 -0.19,-4.87c-0.03,-0.91 -0.07,-1.81 -0.1,-2.75c0.09,-0.78 0.19,-1.57 0.29,-2.38c0.99,-0.66 1.98,-1.32 3,-2z" fill="#F7DBDC" id="svg_96"/>
  <path d="m1473,1517c4,1.33 4.84,3.5 7,7c-2.37,-0.69 -2.37,-0.69 -5,-2c-1.31,-2.62 -1.31,-2.62 -2,-5z" fill="#81181C" id="svg_97"/>
  <path d="m550.53,827.44c-28.97,0 -49.8,25.04 -49.8,62.6c0,33.42 20.25,63.77 49.8,63.77c29.84,0 50.2,-30.34 50.2,-63.77c0,-37.86 -21.49,-62.6 -50.2,-62.6zm-0.01,112.94l0,0c-8.86,0 -13.5,-7.43 -15.94,-17.5c-1.1,-4.78 -1.77,-10.07 -2.18,-15.4c-0.44,-6.33 -0.5,-12.78 -0.5,-18.57c0,-4.58 0.07,-9.12 0.29,-13.49c0.48,-7.97 1.49,-15.82 3.44,-22.28c2.69,-7.92 7.24,-13.01 14.89,-13.01c9.67,0 14.56,8.21 16.97,19.92c1.66,8.73 2.17,19.01 2.17,28.92c0,10.6 -0.4,23.75 -2.95,34.3c-2.56,9.86 -7.32,17.09 -16.18,17.09z" fill="#020202" id="svg_98"/>
  <path d="m456.52,2004.94c-15.71,0 -27,11.39 -27,28.48c0,15.21 10.98,29.02 27,29.02c16.17,0 27.21,-13.81 27.21,-29.02c0,-17.23 -11.65,-28.48 -27.21,-28.48zm0,51.39l0,0c-4.8,0 -7.32,-3.38 -8.64,-7.96c-0.6,-2.17 -0.96,-4.58 -1.18,-7.01c-0.24,-2.88 -0.27,-5.82 -0.27,-8.45c0,-2.08 0.04,-4.15 0.16,-6.14c0.26,-3.62 0.81,-7.2 1.87,-10.14c1.46,-3.6 3.92,-5.92 8.07,-5.92c5.24,0 7.89,3.74 9.2,9.06c0.9,3.97 1.17,8.65 1.17,13.16c0,4.82 -0.22,10.81 -1.6,15.61c-1.39,4.49 -3.97,7.78 -8.77,7.78z" fill="#020202" id="svg_99"/>
  <path d="m458.83,2057.17c-17.07,0 -29.34,12.38 -29.34,30.96c0,16.53 11.93,31.54 29.35,31.54c17.58,0 29.58,-15.01 29.58,-31.54c0,-18.73 -12.66,-30.96 -29.58,-30.96zm0,55.86l0,0c-5.22,0 -7.96,-3.67 -9.39,-8.65c-0.65,-2.36 -1.04,-4.98 -1.28,-7.62c-0.26,-3.13 -0.29,-6.32 -0.29,-9.18c0,-2.26 0.04,-4.51 0.17,-6.67c0.28,-3.94 0.88,-7.82 2.03,-11.02c1.58,-3.92 4.27,-6.43 8.77,-6.43c5.7,0 8.58,4.06 10,9.85c0.98,4.32 1.28,9.4 1.28,14.3c0,5.24 -0.23,11.75 -1.74,16.97c-1.51,4.88 -4.31,8.45 -9.53,8.45z" fill="#020202" id="svg_102" stroke-width="42"/>
 </g>

</svg>