<?xml version="1.0"?>
<svg width="1024" height="1024" xmlns="http://www.w3.org/2000/svg" xmlns:svg="http://www.w3.org/2000/svg" version="1.1">
 <g class="layer" display="inline">
  <title>Layer 1</title>
  <path d="m0.33,2c340.34,0 680.68,0 1031.33,0c0,335.61 0,671.22 0,1017c-340.34,0 -680.68,0 -1031.33,0c0,-335.61 0,-671.22 0,-1017zm172.22,166.85c-1.3,1.19 -1.3,1.19 -2.62,2.41c-6.93,6.59 -12.78,13.83 -18.53,21.42c-0.43,0.58 -0.88,1.15 -1.32,1.74c-17.26,22.84 -31.28,48.9 -37.96,76.72c-0.5,1.83 -0.5,1.83 -1.03,3.68c-2.1,7.68 -3.6,15.31 -4.7,23.19c-0.12,0.85 -0.24,1.71 -0.36,2.59c-2.01,15.41 -2.1,30.76 -2.09,46.27c0,2.33 0,4.66 0,6.99c-0.01,5.7 0,11.4 0,17.11c0,6.83 0,13.68 0,20.52c-0.01,13.4 -0.01,26.8 -0.01,40.19c0.01,11.73 0.01,23.47 0.01,35.2c0,0.77 0,1.56 0,2.36c0,3.16 0,6.33 -0.01,9.48c0,29.67 0,59.33 0.01,89c0,26.32 0,52.64 0,78.96c-0.01,29.6 -0.01,59.2 0,88.8c0,3.17 0,6.33 0,9.48c0,0.77 0,1.56 0,2.35c0,11.72 0,23.44 -0.01,35.15c0,13.34 0,26.67 0.01,40c0,6.79 0,13.6 0,20.39c-0.01,6.24 0,12.47 0,18.7c0,2.24 0,4.49 0,6.73c-0.01,6.86 0.04,13.72 0.13,20.58c0.01,0.97 0.02,1.95 0.02,2.95c0.03,2.87 0.1,5.73 0.18,8.6c0,0.85 0.01,1.7 0.01,2.58c0.14,3.95 0.5,6.94 2.86,10.22c3.66,3.03 6.44,3.42 11.03,3.46c0.77,0.02 1.53,0.05 2.32,0.07c2.62,0.06 5.23,0.06 7.85,0.06c1,0 2,0 3.03,0c3.35,0 6.71,0 10.06,0c2.44,0 4.86,0 7.29,0c5.29,0.01 10.57,0.01 15.85,0c7.86,0 15.71,0 23.57,0c14.03,0.01 28.07,0.01 42.1,0.01c12.29,-0.01 24.58,-0.01 36.87,-0.01c0.82,0 1.62,0 2.47,0c3.3,0 6.62,0 9.93,0.01c31.05,0 62.1,0 93.15,-0.01c27.57,0 55.13,0 82.7,0c30.98,0.01 61.96,0.01 92.94,0c3.31,0 6.62,0 9.92,0c1.22,0 1.22,0 2.47,0c12.27,0 24.54,0 36.81,0.01c13.97,0 27.94,0 41.9,-0.01c7.81,0 15.62,0 23.43,0c5.84,0.01 11.68,0 17.52,0c2.36,0 4.71,0 7.07,0c34.69,0.03 67.14,-4.01 99.51,-17.01c0.68,-0.27 1.38,-0.55 2.08,-0.82c54.04,-21.53 98.05,-65.67 120.79,-118.36c0.52,-1.21 0.52,-1.21 1.07,-2.45c6,-14.03 9.81,-28.35 13.03,-43.23c0.18,-0.77 0.35,-1.55 0.54,-2.34c3.59,-16.28 3.78,-32.48 3.75,-49.05c0,-2.46 0.01,-4.93 0.01,-7.4c0.01,-5.33 0.01,-10.67 0.01,-16c-0.01,-7.93 0,-15.86 0.01,-23.79c0.01,-14.99 0.01,-29.97 0.01,-44.96c0,-11.57 0,-23.14 0.01,-34.71c0,-1.66 0,-3.33 0,-4.99c0,-2.51 0,-5.02 0,-7.53c0.01,-23.29 0.01,-46.58 0.01,-69.88c0,-0.87 0,-1.75 0,-2.65c0,-4.45 0,-8.89 0,-13.34c0,-0.88 0,-1.77 0,-2.67c0,-1.79 0,-3.58 0,-5.36c-0.01,-27.81 0,-55.62 0.02,-83.44c0.02,-31.25 0.03,-62.52 0.02,-93.78c0,-3.33 0,-6.66 0,-9.99c0,-0.82 0,-1.64 0,-2.48c0,-12.39 0.01,-24.78 0.02,-37.17c0.01,-14.07 0.01,-28.16 0,-42.23c-0.01,-7.89 -0.01,-15.76 0.01,-23.65c0.01,-5.87 0,-11.75 -0.01,-17.62c0,-2.38 0,-4.77 0.01,-7.15c0.01,-3.23 0,-6.46 -0.02,-9.68c0.02,-1.4 0.02,-1.4 0.03,-2.84c-0.04,-4.76 -0.12,-8.21 -3.42,-11.98c-4.52,-3.85 -9.38,-3.4 -15.05,-3.36c-1.53,-0.01 -1.53,-0.01 -3.09,-0.01c-3.44,-0.02 -6.89,-0.01 -10.33,0c-2.48,0 -4.97,-0.01 -7.45,-0.01c-5.42,-0.02 -10.83,-0.02 -16.25,-0.01c-8.06,0.01 -16.1,0 -24.16,-0.01c-14.38,-0.02 -28.77,-0.02 -43.17,-0.02c-12.6,0.01 -25.21,0.01 -37.82,0c-1.69,0 -3.38,0 -5.07,0c-2.55,0 -5.1,0 -7.64,-0.01c-23.71,-0.01 -47.42,-0.01 -71.12,0c-0.9,0 -1.79,0 -2.71,0c-7.26,0 -14.52,0 -21.78,0c-28.27,0.02 -56.54,0.01 -84.81,-0.02c-31.78,-0.02 -63.55,-0.04 -95.33,-0.03c-3.39,0 -6.79,0 -10.18,0c-0.84,0 -1.67,0 -2.54,0c-12.58,0.01 -25.16,0 -37.73,-0.01c-14.33,-0.02 -28.66,-0.02 -43,0c-8.01,0.01 -16.01,0.01 -24.01,-0.01c-6.01,-0.01 -12.02,0 -18.02,0.01c-2.41,0.01 -4.81,0 -7.22,-0.01c-62.6,-0.25 -118.52,21.81 -163.88,64.08l0,0.02z" fill="#C8C8C8" id="svg_2"/>
  <path d="m500,503c-0.74,1.52 -0.74,1.52 -1.5,3.06c-1.6,3.8 -2.03,6.79 -1.5,10.94c1.86,3.38 1.86,3.38 4,6c-1.38,2 -1.38,2 -3,4c-0.66,0 -1.32,0 -2,0c-0.27,0.6 -0.53,1.21 -0.8,1.83c-3.74,6.78 -12.39,9.89 -19.07,13.14c-4.19,2.04 -8.25,4.2 -12.26,6.59c-4.13,2.47 -8.3,4.69 -12.62,6.82c-5.94,2.91 -11.68,6.08 -17.42,9.35c-4.87,2.76 -9.82,5.29 -14.85,7.75c-3.95,2.02 -7.78,4.25 -11.62,6.48c-4.13,2.39 -8.33,4.57 -12.61,6.67c-3.99,1.95 -7.85,3.96 -11.63,6.31c-4.84,2.99 -9.86,5.5 -14.97,7.99c-5.82,2.85 -11.48,5.95 -17.15,9.07c-1.89,1.04 -3.78,2.07 -5.68,3.11c-0.93,0.5 -1.86,1.01 -2.81,1.54c-0.93,0.51 -1.86,1.01 -2.82,1.54c-0.95,0.52 -1.9,1.04 -2.88,1.57c-3.65,2 -7.29,3.98 -11.02,5.84c-3.46,1.74 -6.8,3.66 -10.17,5.59c-5.54,3.15 -11.14,6.13 -16.87,8.94c-4.69,2.3 -9.26,4.69 -13.75,7.37c-5.26,3.14 -10.65,5.88 -16.14,8.59c-7.36,3.63 -14.56,7.47 -21.55,11.79c-5.07,3.09 -10.35,5.71 -15.69,8.32c-0.98,0.48 -0.98,0.48 -1.98,0.97c-0.63,0.3 -1.26,0.61 -1.9,0.93c-1.96,0.98 -1.96,0.98 -4.53,2.7c-0.73,0.4 -1.46,0.79 -2.21,1.2c-0.99,-0.33 -1.98,-0.66 -3,-1c-1.19,-2.56 -1.19,-2.56 -2,-5c8.55,-5.6 17.14,-11.13 25.87,-16.44c8.64,-5.24 17.18,-10.62 25.71,-16.03c4.1,-2.59 8.2,-5.19 12.29,-7.78c0.8,-0.5 1.59,-1 2.41,-1.52c4.53,-2.86 9.08,-5.69 13.66,-8.48c4.13,-2.53 8.17,-5.15 12.18,-7.87c3.75,-2.53 7.51,-4.83 11.5,-6.94c3.46,-1.84 6.65,-3.77 9.82,-6.06c4.87,-3.52 9.96,-6.57 15.12,-9.63c6.5,-3.86 12.93,-7.79 19.25,-11.94c5.23,-3.42 10.5,-6.75 15.88,-9.93c5.33,-3.17 10.58,-6.44 15.78,-9.81c22.65,-14.66 45.61,-28.87 68.63,-42.94c3.53,-2.16 7.04,-4.34 10.52,-6.57c8.5,-5.38 15.3,-8.18 25.38,-8.06z" fill="#DCC846" id="svg_4"/>
  <path d="m506,380c4.88,0.88 4.88,0.88 6,2c0.1,2.95 0.13,5.88 0.11,8.83c0,0.93 0,1.86 0,2.81c0,3.08 0,6.16 -0.01,9.24c0,2.13 -0.01,4.26 -0.01,6.38c0,5.62 -0.01,11.23 -0.02,16.85c-0.01,5.72 -0.02,11.45 -0.02,17.17c-0.01,11.24 -0.03,22.48 -0.05,33.72c-1.49,0.5 -1.49,0.5 -3,1c0,8.58 0,17.16 0,26c1.98,0.66 3.96,1.32 6,2c2.91,2.91 2.42,5.71 2.66,9.69c0.13,2.5 0.13,2.5 2.34,4.31c-1.12,1.01 -2.25,2 -3.37,3c-0.63,0.56 -1.26,1.11 -1.9,1.69c-1.73,1.31 -1.73,1.31 -3.73,1.31c0,101.31 0,202.62 0,307c-0.99,0 -1.98,0 -3,0c-2.86,-191.97 -2.86,-191.97 -3,-308c-0.9,-0.41 -0.9,-0.41 -1.83,-0.83c-3.2,-1.72 -5.38,-4.06 -7.17,-7.17c-0.74,-5.21 0.17,-8.6 3,-13c4.32,-4 4.32,-4 7,-4c-0.14,-3.48 -0.29,-6.96 -0.44,-10.44c-0.04,-0.99 -0.08,-1.98 -0.12,-3.01c-0.06,-1.41 -0.06,-1.41 -0.12,-2.86c-0.06,-1.31 -0.06,-1.31 -0.11,-2.65c0.01,-2.03 0.01,-2.03 -1.21,-3.04c-0.11,-2.94 -0.15,-5.85 -0.15,-8.79c0,-0.92 0,-1.84 -0.01,-2.79c0,-3.06 -0.01,-6.13 -0.01,-9.19c0,-2.12 0,-4.25 -0.01,-6.37c0,-4.45 -0.01,-8.91 -0.01,-13.36c0,-5.71 -0.01,-11.43 -0.03,-17.15c-0.01,-4.38 -0.01,-8.76 -0.01,-13.15c0,-2.1 0,-4.21 -0.01,-6.32c-0.01,-2.94 -0.01,-5.89 0,-8.83c-0.01,-0.88 -0.01,-1.76 -0.02,-2.66c0.03,-6.05 0.03,-6.05 2.26,-9.39z" fill="#CD3137" id="svg_5"/>
  <path d="m501,502c0.99,0 1.98,0 3,0c-0.87,4.88 -0.87,4.88 -2,6c-0.42,6.8 -0.42,6.8 2,13c1.65,0.33 3.3,0.66 5,1c0.66,102.63 1.32,205.26 2,311c-0.99,0 -1.98,0 -3,0c-2.86,-191.97 -2.86,-191.97 -3,-308c-0.6,-0.27 -1.21,-0.55 -1.83,-0.83c-3.2,-1.72 -5.38,-4.06 -7.17,-7.17c-0.75,-5.23 0.29,-8.52 3,-13c0.66,-0.66 1.32,-1.32 2,-2z" fill="#7C1B1E" id="svg_6"/>
  <path d="m885,699c0,8.58 0,17.16 0,26c1.65,0 3.3,0 5,0c0,2.31 0,4.62 0,7c-1.65,0 -3.3,0 -5,0c0,2.64 0,5.28 0,8c-2.64,0 -5.28,0 -8,0c0,-2.97 0,-5.94 0,-9c-5.61,0 -11.22,0 -17,0c0,-7.87 0,-7.87 2.16,-10.61c0.46,-0.61 0.92,-1.21 1.4,-1.83c0.49,-0.62 0.99,-1.24 1.5,-1.87c1.02,-1.31 2.04,-2.62 3.05,-3.93c0.5,-0.64 1,-1.27 1.51,-1.93c2.43,-3.22 4.5,-6.7 6.55,-10.17c1.83,-1.66 1.83,-1.66 8.83,-1.66z" fill="#0B0B0B" id="svg_15"/>
  <path d="m511,525c1.87,1.57 2.9,2.44 3.32,4.89c-0.02,0.72 -0.04,1.43 -0.07,2.17c-0.02,0.83 -0.03,1.66 -0.05,2.51c-0.04,0.91 -0.08,1.82 -0.11,2.75c-0.03,0.96 -0.06,1.92 -0.08,2.91c-0.06,2.11 -0.12,4.22 -0.19,6.32c-0.19,5.82 -0.33,11.63 -0.47,17.45c-0.03,1.23 -0.06,2.46 -0.1,3.72c-0.33,13.46 -0.41,26.92 -0.46,40.39c-0.01,2.53 -0.02,5.07 -0.03,7.61c-0.02,5.91 -0.04,11.81 -0.06,17.72c-0.02,6.94 -0.04,13.88 -0.07,20.83c-0.05,12.36 -0.09,24.73 -0.13,37.1c-0.04,11.97 -0.08,23.94 -0.13,35.91c0,0.75 0,1.49 -0.01,2.26c-0.01,3.74 -0.02,7.48 -0.04,11.22c-0.11,30.75 -0.22,61.49 -0.32,92.24c-2,-2 -2,-2 -2.25,-4.2c0,-0.93 0,-1.85 0,-2.81c0,-1.06 -0.01,-2.13 -0.01,-3.23c0,-1.18 0.01,-2.36 0.01,-3.57c0,-1.25 0,-2.5 0,-3.78c-0.01,-3.47 0,-6.94 0,-10.41c0.01,-3.74 0,-7.48 0,-11.22c0,-7.33 0,-14.66 0.01,-21.99c0.01,-8.52 0.01,-17.05 0.01,-25.57c0,-15.21 0.01,-30.42 0.02,-45.63c0.02,-14.77 0.03,-29.54 0.02,-44.31c0,-0.91 0,-1.82 0,-2.76c0,-1.36 0,-1.36 0,-2.75c0,-16.8 0.01,-33.59 0.02,-50.39c0,-5.95 0,-11.9 0,-17.85c0,-7.25 0.01,-14.49 0.02,-21.74c0,-3.7 0.01,-7.4 0,-11.1c0,-4 0.01,-8 0.02,-12c-0.01,-1.19 -0.01,-2.37 -0.01,-3.59c0,-1.06 0.01,-2.12 0.01,-3.22c0,-0.92 0,-1.85 0,-2.8c0.13,-2.08 0.13,-2.08 1.13,-3.08z" fill="#E27075" id="svg_16"/>
  <path d="m778,839c6.93,0 13.86,0 21,0c0,2.31 0,4.62 0,7c-4.95,0 -9.9,0 -15,0c0,1.65 0,3.3 0,5c0.58,0.01 1.16,0.03 1.76,0.04c6.1,0.38 8.96,1.58 13.24,5.96c2.09,4.18 1.43,9.44 1,14c-2.11,4.46 -4.42,7.08 -9,9c-5.41,0.6 -9.33,-0.18 -14,-3c-1.7,-2.54 -2.91,-5.15 -4,-8c3.09,-1.76 4.23,-2 8,-2c0.47,0.82 0.95,1.65 1.44,2.5c0.51,0.82 1.03,1.65 1.56,2.5c2.54,0.58 2.54,0.58 5,0c2.19,-1.78 2.19,-1.78 2.27,-4.09c-0.01,-0.8 -0.01,-1.59 -0.02,-2.41c0.01,-0.79 0.01,-1.59 0.02,-2.41c-0.08,-2.31 -0.08,-2.31 -2.27,-4.09c-4.34,0.1 -4.34,0.1 -8,2c-2.33,0.04 -4.67,0.04 -7,0c0.47,-3.1 0.96,-6.21 1.44,-9.31c0.13,-0.88 0.27,-1.76 0.41,-2.67c0.13,-0.85 0.26,-1.7 0.4,-2.57c0.12,-0.78 0.24,-1.56 0.36,-2.37c0.39,-2.08 0.39,-2.08 1.39,-5.08z" fill="#090909" id="svg_17"/>
  <path d="m528,126c3.71,1.54 6.11,3.43 8,7c0.8,5.91 -0.55,10.27 -4,15c-2.52,2.5 -5.13,4.83 -7.86,7.12c-2.21,1.7 -2.21,1.7 -3.14,3.88c4.95,0 9.9,0 15,0c0,2.31 0,4.62 0,7c-8.91,0 -17.82,0 -27,0c1.65,-9.88 7.64,-14.86 14.93,-21.41c2.91,-3.64 3.07,-7.03 3.07,-11.59c-2.31,0 -4.62,0 -7,0c-0.66,1.65 -1.32,3.3 -2,5c-2.97,0 -5.94,0 -9,0c0.93,-4.76 1.93,-8.07 6.02,-11.12c4.16,-1.85 8.56,-1.5 12.98,-0.88z" fill="#080808" id="svg_18"/>
  <path d="m881.5,289.31c2.5,1.69 2.5,1.69 4.5,4.69c1.04,6.15 0.24,11.02 -3.36,16.11c-2.9,3.34 -6.21,6.12 -9.64,8.89c-0.33,0.33 -0.66,0.66 -1,1c4.95,0.33 9.9,0.66 15,1c0,2.31 0,4.62 0,7c-9.24,0 -18.48,0 -28,0c2.25,-7.86 2.25,-7.86 6.19,-11.94c0.79,-0.85 1.59,-1.7 2.41,-2.58c1.51,-1.56 3.02,-3.11 4.55,-4.65c3.99,-4.19 3.99,-4.19 5.35,-9.77c-0.17,-2.93 -0.17,-2.93 -1.5,-4.06c-2.41,-0.5 -2.41,-0.5 -5,0c-0.43,0.82 -0.87,1.65 -1.31,2.5c-0.84,1.24 -0.84,1.24 -1.69,2.5c-2.79,0.47 -5.15,0.23 -8,0c1.2,-7.2 1.2,-7.2 4.5,-10.5c5.85,-2.51 11.07,-2.42 17,-0.19z" fill="#080808" id="svg_19"/>
  <path d="m892,490c2.88,1.31 2.88,1.31 5,3c0.9,0.62 0.9,0.62 1.81,1.25c1.97,2.89 1.55,5.37 1.19,8.75c-1.37,2.44 -1.37,2.44 -3,4c-0.66,0 -1.32,0 -2,0c0,0.66 0,1.32 0,2c0.78,0.27 1.57,0.54 2.38,0.81c2.62,1.19 2.62,1.19 4.62,4.19c0.46,4.71 0.47,7.04 -1.62,11.31c-3.74,4.23 -7.25,5.83 -12.82,6.25c-4.52,-0.16 -7.04,-1.71 -10.25,-4.83c-1.87,-2.47 -2.24,-4.67 -2.31,-7.73c2.64,0 5.28,0 8,0c0.66,1.32 1.32,2.64 2,4c2.92,0.17 2.92,0.17 6,0c2.32,-1.88 2.32,-1.88 2.19,-5c0.01,-2.92 0.01,-2.92 -1.19,-5c-2.32,-0.41 -4.66,-0.74 -7,-1c0,-1.98 0,-3.96 0,-6c1.98,-0.99 3.96,-1.98 6,-3c0,-1.65 0,-3.3 0,-5c-1.65,-0.33 -3.3,-0.66 -5,-1c-0.37,0.66 -0.74,1.32 -1.13,2c-1.87,2 -1.87,2 -5.06,2.25c-0.93,-0.08 -1.85,-0.16 -2.81,-0.25c-0.81,-2.19 -0.81,-2.19 -1,-5c4.94,-5.87 8.61,-6.73 16,-6z" fill="#0A0A0A" id="svg_21"/>
  <path d="m210,854c8.91,0 17.82,0 27,0c0,6.68 0,6.68 -2.69,9.69c-7.08,8.74 -10.15,19.29 -11.31,30.31c-2.64,0 -5.28,0 -8,0c1.01,-12.55 5.01,-22.52 12,-33c-5.61,0 -11.22,0 -17,0c0,-2.31 0,-4.62 0,-7z" fill="#080808" id="svg_26"/>
  <path d="m505,381c0.99,0 1.98,0 3,0c0,39.27 0,78.54 0,119c-0.33,0 -0.66,0 -1,0c-1.21,-5.11 -1.36,-10.25 -1.61,-15.47c0.13,-3.56 0.13,-3.56 -1.39,-6.53c-0.1,-2.94 -0.14,-5.86 -0.13,-8.8c0,-0.93 0,-1.85 0,-2.8c-0.01,-3.07 -0.01,-6.14 0,-9.21c0,-2.12 0,-4.25 -0.01,-6.37c0,-4.46 0,-8.92 0.01,-13.37c0.01,-5.73 0,-11.45 0,-17.18c-0.01,-4.39 -0.01,-8.77 0,-13.16c0,-2.11 0,-4.22 -0.01,-6.34c0,-2.94 0.01,-5.89 0.01,-8.84c0,-0.88 0,-1.76 -0.01,-2.66c0.03,-6.04 0.03,-6.04 1.14,-8.27z" fill="#701114" id="svg_27"/>
  <path d="m280,139c2.31,0 4.62,0 7,0c0,13.53 0,27.06 0,41c-2.64,0 -5.28,0 -8,0c0,-9.24 0,-18.48 0,-28c-4.95,2.47 -4.95,2.47 -10,5c0,-2.64 0,-5.28 0,-8c1.07,-0.54 2.14,-1.07 3.25,-1.62c3.06,-1.71 3.81,-2.48 5.75,-5.63c0.66,-0.91 1.32,-1.81 2,-2.75z" fill="#0F0F0F" id="svg_28"/>
  <path d="m166,285c2.31,0 4.62,0 7,0c0,13.2 0,26.4 0,40c-2.64,0 -5.28,0 -8,0c-0.33,-8.91 -0.66,-17.82 -1,-27c-2.31,1.32 -4.62,2.64 -7,4c-0.66,0 -1.32,0 -2,0c-0.56,-3.12 -0.56,-3.12 0,-7c2.15,-1.85 4.35,-3.18 6.84,-4.54c2.38,-1.61 3.13,-2.82 4.16,-5.46z" fill="#0A0A0A" id="svg_29"/>
  <path d="m491,126c2.31,0 4.62,0 7,0c0,13.2 0,26.4 0,40c-2.64,0 -5.28,0 -8,0c0,-9.24 0,-18.48 0,-28c-1.98,1.32 -3.96,2.64 -6,4c-2.38,0.75 -2.38,0.75 -4,1c-0.5,-3.12 -0.5,-3.12 0,-7c1.85,-1.83 3.76,-3.16 5.96,-4.54c2.17,-1.35 2.17,-1.35 3.36,-3.64c0.56,-0.6 1.11,-1.2 1.68,-1.82z" fill="#070707" id="svg_30"/>
  <path d="m308,140c2.31,0 4.62,0 7,0c0,13.2 0,26.4 0,40c-2.64,0 -5.28,0 -8,0c-0.33,-8.91 -0.66,-17.82 -1,-27c-2.31,1.32 -4.62,2.64 -7,4c-0.66,0 -1.32,0 -2,0c-0.56,-3.12 -0.56,-3.12 0,-7c2.15,-1.85 4.35,-3.18 6.84,-4.54c2.38,-1.61 3.13,-2.82 4.16,-5.46z" fill="#0A0A0A" id="svg_31"/>
  <path d="m778,140c1.98,0 3.96,0 6,0c0,13.2 0,26.4 0,40c-2.31,0 -4.62,0 -7,0c0,-9.24 0,-18.48 0,-28c-2.64,1.65 -5.28,3.3 -8,5c-0.66,0 -1.32,0 -2,0c-0.5,-3.12 -0.5,-3.12 0,-7c1.85,-1.83 3.76,-3.16 5.96,-4.54c2.17,-1.36 2.17,-1.36 3.43,-3.64c0.53,-0.6 1.06,-1.2 1.61,-1.82z" fill="#020202" id="svg_33"/>
  <path d="m506,380c4.88,0.88 4.88,0.88 6,2c0.1,2.89 0.13,5.76 0.11,8.65c0,0.91 0,1.82 0,2.75c0,3.01 0,6.03 -0.01,9.04c0,2.09 -0.01,4.17 -0.01,6.25c0,5.5 -0.01,10.99 -0.02,16.49c-0.01,5.6 -0.02,11.21 -0.02,16.81c-0.01,11 -0.03,22.01 -0.05,33.01c-0.99,0 -1.98,0 -3,0c-1.06,-19.37 -1.12,-38.7 -1.07,-58.1c0.01,-4.06 0.02,-8.13 0.02,-12.19c0.01,-7.9 0.03,-15.81 0.05,-23.71c-0.66,-0.33 -1.32,-0.66 -2,-1z" fill="#E16D71" id="svg_34"/>
  <path d="m501,502c0.99,0 1.98,0 3,0c-0.87,4.88 -0.87,4.88 -2,6c-0.38,6.78 -0.38,6.78 2,13c2.04,0.89 2.04,0.89 4,1c-0.16,0.55 -0.32,1.09 -0.49,1.66c-0.58,2.66 -0.67,5.11 -0.72,7.84c-0.02,1.1 -0.04,2.2 -0.06,3.34c-0.01,1.18 -0.03,2.36 -0.05,3.58c-0.02,1.22 -0.04,2.43 -0.06,3.68c-0.06,3.89 -0.12,7.77 -0.18,11.65c-0.05,2.63 -0.09,5.26 -0.13,7.89c-0.11,6.46 -0.21,12.91 -0.31,19.36c-0.33,0 -0.66,0 -1,0c0,-18.48 0,-36.96 0,-56c-1.32,-0.66 -2.64,-1.32 -4,-2c-3.4,-3.32 -4.82,-4.77 -5.5,-9.5c0.68,-4.73 2.11,-8.11 5.5,-11.5z" fill="#803738" id="svg_49"/>
  <path d="m508,713c0.33,0 0.66,0 1,0c0.01,0.84 0.02,1.68 0.03,2.54c0.13,10.72 0.27,21.43 0.41,32.15c0.01,0.85 0.02,1.7 0.03,2.58c0.36,27.58 0.82,55.16 1.53,82.73c-0.99,0 -1.98,0 -3,0c0,-39.6 0,-79.2 0,-120z" fill="#72090C" id="svg_51"/>
  <path d="m511,525c2.13,1.7 2.94,2.55 3.32,5.3c-0.03,1.35 -0.03,1.35 -0.07,2.72c-0.02,1.02 -0.04,2.04 -0.06,3.1c-0.04,1.1 -0.08,2.2 -0.12,3.33c-0.04,1.69 -0.04,1.69 -0.08,3.42c-0.08,3.6 -0.19,7.21 -0.3,10.82c-0.07,2.44 -0.13,4.88 -0.19,7.33c-0.15,5.99 -0.32,11.99 -0.5,17.98c-0.33,0 -0.66,0 -1,0c-0.33,13.86 -0.66,27.72 -1,42c-0.33,0 -0.66,0 -1,0c-0.02,-12.37 -0.04,-24.74 -0.05,-37.11c-0.01,-5.74 -0.01,-11.48 -0.03,-17.23c-0.01,-5.53 -0.01,-11.07 -0.01,-16.61c-0.01,-2.12 -0.01,-4.23 -0.02,-6.35c0,-2.96 0,-5.91 0,-8.87c-0.01,-0.88 -0.01,-1.77 -0.01,-2.68c0.01,-6.04 0.01,-6.04 1.12,-7.15z" fill="#E6878A" id="svg_53"/>
  <path d="m509,478c0.66,0 1.32,0 2,0c0,7.26 0,14.52 0,22c1.32,0.33 2.64,0.66 4,1c3.04,2.17 4.92,3.88 7,7c0.2,2.26 0.2,2.26 0.13,4.69c-0.02,0.81 -0.04,1.61 -0.06,2.45c-0.03,0.92 -0.03,0.92 -0.07,1.86c-1.32,0.66 -2.64,1.32 -4,2c-1.63,-1.63 -1.16,-3.63 -1.25,-5.87c-0.27,-4.22 -0.27,-4.22 -3.19,-7.19c-0.84,-0.31 -1.69,-0.62 -2.56,-0.94c-0.66,-0.33 -1.32,-0.66 -2,-1c0,-8.58 0,-17.16 0,-26z" fill="#E2848A" id="svg_55"/>
  <path d="m509,380c1.49,0.99 1.49,0.99 3,2c0.34,2.71 0.34,2.71 0.29,6.1c-0.01,1.21 -0.02,2.43 -0.03,3.67c-0.02,1.27 -0.05,2.55 -0.07,3.86c-0.02,1.27 -0.03,2.55 -0.04,3.87c-0.04,3.17 -0.09,6.33 -0.15,9.5c-0.66,0 -1.32,0 -2,0c-0.33,1.32 -0.66,2.64 -1,4c0,-10.89 0,-21.78 0,-33z" fill="#E17B7F" id="svg_64"/>
  <path d="m876,712c0.33,0 0.66,0 1,0c0,4.29 0,8.58 0,13c-2.97,0 -5.94,0 -9,0c1.56,-3.12 3.14,-5.87 5.06,-8.75c0.53,-0.8 1.06,-1.6 1.6,-2.42c0.44,-0.61 0.88,-1.21 1.34,-1.83z" fill="#E9E9E9" id="svg_71"/>
  <path d="m509,478c0.66,0 1.32,0 2,0c0,7.26 0,14.52 0,22c0.99,0 1.98,0 3,0c-0.33,1.65 -0.66,3.3 -1,5c-1.32,-0.33 -2.64,-0.66 -4,-1c0,-8.58 0,-17.16 0,-26z" fill="#E37F82" id="svg_72"/>
  <path d="m508,451c0.33,0 0.66,0 1,0c0,7.92 0,15.84 0,24c0.99,0 1.98,0 3,0c-0.33,0.99 -0.66,1.98 -1,3c-0.66,0 -1.32,0 -2,0c0,8.58 0,17.16 0,26c-0.33,0 -0.66,0 -1,0c0,-17.49 0,-34.98 0,-53z" fill="#D1393E" id="svg_73"/>
  <path d="m509,382c0.33,0 0.66,0 1,0c0,7.26 0,14.52 0,22c0.66,0 1.32,0 2,0c0,1.65 0,3.3 0,5c-0.66,0 -1.32,0 -2,0c-0.33,1.32 -0.66,2.64 -1,4c0,-10.23 0,-20.46 0,-31z" fill="#E48689" id="svg_79"/>
  <path d="m510,409c0.66,0 1.32,0 2,0c0,9.57 0,19.14 0,29c-0.33,0 -0.66,0 -1,0c-0.03,-0.69 -0.05,-1.37 -0.08,-2.08c-0.11,-3.1 -0.23,-6.2 -0.36,-9.29c-0.04,-1.09 -0.08,-2.17 -0.12,-3.28c-0.04,-1.03 -0.08,-2.06 -0.12,-3.12c-0.04,-0.96 -0.08,-1.91 -0.11,-2.89c-0.07,-2.36 -0.07,-2.36 -1.21,-4.34c0.44,-2.12 0.44,-2.12 1,-4z" fill="#DF7175" id="svg_82"/>
  <path d="m521,508c0.33,0 0.66,0 1,0c0,2.97 0,5.94 0,9c-1.98,0.99 -1.98,0.99 -4,2c-1,-1 -1,-1 -1.1,-2.85c0.03,-2.05 0.07,-4.1 0.1,-6.15c0.33,1.32 0.66,2.64 1,4c0.99,0 1.98,0 3,0c0,-1.98 0,-3.96 0,-6z" fill="#D5655E" id="svg_87"/>
  <path d="m501,502c0.99,0 1.98,0 3,0c-0.87,4.88 -0.87,4.88 -2,6c-0.37,2.33 -0.7,4.66 -1,7c-0.33,0 -0.66,0 -1,0c-0.22,-1.79 -0.43,-3.58 -0.63,-5.37c-0.11,-1 -0.23,-2 -0.35,-3.03c0,-0.86 -0.01,-1.72 -0.02,-2.6c0.66,-0.66 1.32,-1.32 2,-2z" fill="#8B181C" id="svg_88"/>
  <path d="m512,520c2.97,0.49 2.97,0.49 6,1c-1.65,1.65 -3.3,3.3 -5,5c-0.66,-0.66 -1.32,-1.32 -2,-2c0.37,-2.12 0.37,-2.12 1,-4z" fill="#AA1F26" id="svg_93"/>
  <path d="m498,505c0.66,0 1.32,0 2,0c-0.33,3.3 -0.66,6.6 -1,10c-0.33,0 -0.66,0 -1,0c-1.13,-7.75 -1.13,-7.75 0,-10z" fill="#661516" id="svg_97"/>
  <path d="m510,404c0.66,0 1.32,0 2,0c0,1.65 0,3.3 0,5c-0.66,0 -1.32,0 -2,0c-0.33,1.32 -0.66,2.64 -1,4c-0.13,-6.75 -0.13,-6.75 1,-9z" fill="#E27E82" id="svg_98"/>
  <path d="m193.2,283.57c-8.98,0 -15.44,7.99 -15.44,19.97c0,10.66 6.28,20.34 15.44,20.34c9.25,0 15.56,-9.68 15.56,-20.34c0,-12.08 -6.66,-19.97 -15.56,-19.97zm0,36.02l0,0c-2.75,0 -4.19,-2.37 -4.94,-5.58c-0.34,-1.52 -0.55,-3.21 -0.68,-4.91c-0.14,-2.02 -0.15,-4.08 -0.15,-5.92c0,-1.46 0.02,-2.91 0.09,-4.3c0.15,-2.54 0.46,-5.04 1.07,-7.11c0.83,-2.53 2.24,-4.15 4.62,-4.15c3,0 4.51,2.62 5.26,6.35c0.51,2.78 0.67,6.06 0.67,9.22c0,3.38 -0.12,7.58 -0.92,10.94c-0.79,3.14 -2.27,5.45 -5.02,5.45z" fill="#000000" id="svg_20"/>
  <path d="m136.43,494.19c-5.46,0 -9.39,3.96 -9.39,9.91c0,5.29 3.82,10.09 9.39,10.09c5.63,0 9.46,-4.8 9.46,-10.09c0,-5.99 -4.05,-9.91 -9.47,-9.91zm0,17.87l0,0c-1.67,0 -2.55,-1.18 -3.01,-2.77c-0.21,-0.76 -0.33,-1.59 -0.41,-2.44c-0.08,-1 -0.09,-2.02 -0.09,-2.94c0,-0.72 0.01,-1.44 0.05,-2.13c0.09,-1.26 0.28,-2.5 0.65,-3.53c0.51,-1.25 1.36,-2.06 2.81,-2.06c1.82,0 2.75,1.3 3.2,3.15c0.31,1.38 0.41,3.01 0.41,4.58c0,1.68 -0.08,3.76 -0.56,5.43c-0.48,1.56 -1.38,2.7 -3.05,2.7z" fill="#000000" id="svg_22"/>
  <path d="m143.67,505.67c0,1 0,1.8 0,2.7c0,0.94 0,1.78 0,2.65c0,1.02 0.1,1.88 -0.17,2.82c-0.19,0.68 -0.73,1.66 -0.81,2.33c-0.12,0.98 -0.02,1.79 -0.02,2.79c0,0.91 0,1.77 0,2.71c0,0.8 0,1.64 0,2.65c0,0.69 0,1.72 0,2.67c0,0.68 0,1.79 0,2.68c0,0.76 0,1.65 0,2.67l0,0.78l0.06,0.85" fill="none" id="svg_24"/>
  <path d="m142.69,504.67c0,0.66 0,1.42 0,2.16c0,0.75 0,1.55 0,2.22c0,0.77 0.25,1.55 -0.01,2.22c-0.25,0.66 -0.8,1.18 -0.82,1.93c-0.01,0.74 0,1.48 0,2.24c0,0.73 0,1.41 0,2.15c0,0.75 0,1.48 0,2.28c0,0.7 0,1.43 0,2.19c0,0.73 0.01,1.41 0,2.19c-0.01,0.71 -0.37,1.32 -0.9,1.72c-0.62,0.47 -1.26,0.53 -1.82,0.99c-0.55,0.46 -1.28,0.48 -1.89,0.93c-0.52,0.38 -1.01,0.8 -1.77,0.8c-0.74,0 -1.46,0 -2.18,0c-0.78,0 -1.59,0.15 -2.18,-0.14c-0.62,-0.3 -0.48,-1.26 -0.86,-1.93c-0.33,-0.58 -1.37,-0.36 -1.62,-1.08c-0.25,-0.71 0,-1.46 0,-2.18l0,-0.82l0,-0.71" fill="none" id="svg_35" stroke="#000000" stroke-width="5"/>
  <path d="m135.44,707.12c-4.88,0 -8.39,3.17 -8.39,7.93c0,4.23 3.41,8.07 8.39,8.07c5.03,0 8.46,-3.84 8.46,-8.07c0,-4.79 -3.62,-7.93 -8.46,-7.93zm0,14.3l0,0c-1.49,0 -2.28,-0.94 -2.69,-2.22c-0.19,-0.61 -0.3,-1.28 -0.37,-1.95c-0.07,-0.8 -0.08,-1.62 -0.08,-2.35c0,-0.58 0.01,-1.15 0.05,-1.71c0.08,-1.01 0.25,-2 0.58,-2.82c0.45,-1 1.22,-1.65 2.51,-1.65c1.63,0 2.45,1.04 2.86,2.52c0.28,1.11 0.37,2.41 0.37,3.66c0,1.34 -0.07,3.01 -0.5,4.34c-0.43,1.25 -1.23,2.16 -2.73,2.16z" fill="#080808" id="svg_36"/>
  <path d="m136.49,722.07c-5.51,0 -9.46,3.42 -9.46,8.56c0,4.57 3.85,8.72 9.46,8.72c5.67,0 9.54,-4.15 9.54,-8.72c0,-5.18 -4.08,-8.56 -9.54,-8.56zm0,15.44l0,0c-1.68,0 -2.57,-1.02 -3.03,-2.39c-0.21,-0.65 -0.34,-1.38 -0.41,-2.11c-0.08,-0.87 -0.09,-1.75 -0.09,-2.54c0,-0.63 0.01,-1.25 0.05,-1.84c0.09,-1.09 0.28,-2.16 0.65,-3.05c0.51,-1.08 1.38,-1.78 2.83,-1.78c1.84,0 2.77,1.12 3.22,2.72c0.32,1.19 0.41,2.6 0.41,3.95c0,1.45 -0.08,3.25 -0.56,4.69c-0.49,1.35 -1.39,2.34 -3.07,2.34z" fill="#000000" id="svg_39"/>
  <path d="m497.05,882.62c-5.12,0 -8.81,4.16 -8.81,10.4c0,5.55 3.58,10.6 8.81,10.6c5.28,0 8.88,-5.04 8.88,-10.6c0,-6.29 -3.8,-10.4 -8.88,-10.4zm0,18.77l0,0c-1.57,0 -2.39,-1.23 -2.82,-2.91c-0.19,-0.79 -0.31,-1.67 -0.39,-2.56c-0.08,-1.05 -0.09,-2.12 -0.09,-3.09c0,-0.76 0.01,-1.52 0.05,-2.24c0.08,-1.32 0.26,-2.63 0.61,-3.7c0.47,-1.32 1.28,-2.16 2.63,-2.16c1.71,0 2.57,1.36 3,3.31c0.29,1.45 0.38,3.16 0.38,4.81c0,1.76 -0.07,3.95 -0.52,5.7c-0.45,1.64 -1.29,2.84 -2.86,2.84z" fill="#080808" id="svg_40"/>
  <path d="m501.67,875c-1,0 -1.92,0 -2.71,0c-0.96,0 -1.86,0 -2.59,0c-1.04,0 -1.89,0 -2.82,0c-0.89,0 -1.8,0 -2.59,0c-0.94,0 -1.88,-0.31 -2.68,0.01c-0.76,0.31 -0.61,1.43 -0.61,2.28c0,0.92 0,1.84 0,2.73c0,0.63 0,1.71 0,2.67c0,0.81 0,1.72 0,2.63c0,0.85 0,1.79 0,2.7c0,0.85 0,1.58 0,2.57c0,0.92 0,1.88 0,2.71l0,1.02l0,0.82l0.09,0.86" fill="none" id="svg_43"/>
  <path d="m491.67,888c0,-0.8 0,-1.71 0,-2.61c0,-0.89 0,-1.79 0,-2.68c0,-0.93 0,-1.8 0,-2.68c0,-0.83 0,-1.73 0,-2.63c0,-0.88 0,-1.84 0,-2.7c0,-0.93 0.28,-1.5 0.92,-1.99c0.68,-0.52 0.91,-1.34 1.44,-2.01c0.59,-0.74 1.59,-0.7 2.44,-0.7c0.91,0 1.81,0 2.68,-0.02l0.55,-0.55l0.68,-0.42l0.94,0" fill="none" id="svg_45"/>
  <path d="m489.67,887c0,-0.76 0,-1.66 0,-2.46c0,-0.96 0,-1.75 0,-2.77c0,-0.96 0,-1.74 0,-2.79c0,-0.54 0,-1.47 0,-2.5c0,-0.72 0,-1.78 0,-2.42c0,-1.19 0,-2.22 0,-2.88c0,-1.01 0,-1.87 0,-2.82c0,-0.88 0,-1.76 0,-2.66c0,-0.9 0.31,-1.73 1.02,-2.2c0.79,-0.53 1.45,-1.04 2.15,-1.5c0.8,-0.53 1.67,-0.81 2.46,-1.03c0.87,-0.24 1.58,-0.54 2.49,-1.17c0.6,-0.42 1.41,-0.78 2.37,-0.8l0.86,0l0.9,0" fill="none" id="svg_46" transform="matrix(1 0 0 1 0 0)"/>
  <path d="m501.67,871c-1,0 -2.04,0 -2.8,0c-0.9,0 -1.8,0 -2.76,0c-0.87,0 -1.73,0 -2.72,0c-0.81,0 -1.4,0.44 -1.94,1c-0.56,0.59 -1.27,1.06 -1.66,1.88c-0.32,0.67 -0.07,1.66 -0.47,2.42c-0.45,0.85 -0.65,1.71 -0.65,2.5c0,0.91 0,1.81 0,2.7c0,0.9 0,1.8 0,2.72c0,0.88 -0.03,1.78 0,2.58c0.03,0.9 0.5,1.7 0.94,2.49l0.06,0.93l0.44,0.66l0.71,0.11" fill="#000000" id="svg_47"/>
 </g>
</svg>